<?xml version="1.0" encoding="UTF-8"?>
<svg width="162px" height="80px" viewBox="0 0 162 80" version="1.1" xmlns="http://www.w3.org/2000/svg" xmlns:xlink="http://www.w3.org/1999/xlink">
    <title>编组</title>
    <defs>
        <rect id="path-1" x="0" y="0" width="162" height="80" rx="12"></rect>
    </defs>
    <g id="首页改版" stroke="none" stroke-width="1" fill="none" fill-rule="evenodd">
        <g id="V2-首页" transform="translate(-195.000000, -254.000000)">
            <g id="编组" transform="translate(195.000000, 254.000000)">
                <mask id="mask-2" fill="white">
                    <use xlink:href="#path-1"></use>
                </mask>
                <use id="蒙版" fill="#CDF9FF" xlink:href="#path-1"></use>
                <g mask="url(#mask-2)">
                    <g transform="translate(116.000000, 25.000000)">
                        <rect id="矩形" stroke="none" fill="#0D978D" fill-rule="evenodd" x="0" y="0" width="32" height="32" rx="6"></rect>
                        <path d="M20.4697822,5.44667711 C20.7580804,5.43414241 21.0463786,5.44667711 21.3346769,5.44667711 L24.1800551,5.44667711 C25.3583174,5.44667711 26.2984204,6.21129417 26.5491145,7.3519524 C26.5867186,7.52743828 26.5992533,7.71545886 26.5992533,7.89094475 L26.5992533,11.5636135 C26.5992533,11.92712 26.3485592,12.227953 25.9975874,12.3282306 C25.6716851,12.4159735 25.2956439,12.2780918 25.120158,11.9772588 C25.0449498,11.8268424 24.994811,11.6513565 24.994811,11.4884053 C24.9822763,9.97170591 24.994811,9.5204565 24.994811,7.99122239 C24.994811,7.33941769 24.693978,7.03858475 24.0421733,7.03858475 L20.5073863,7.03858475 C20.0185328,7.03858475 19.667561,6.72521711 19.6550263,6.2865024 C19.6550263,5.81018358 19.9934633,5.45921182 20.4697822,5.44667711 Z M12.7086004,6.2739677 C12.6960657,6.7126824 12.3450939,7.02605005 11.8562404,7.02605005 L8.30891863,7.02605005 C7.65711392,7.02605005 7.35628098,7.32688298 7.35628098,7.97868769 C7.35628098,9.50792179 7.36881569,9.9591712 7.35628098,11.4758706 C7.35628098,11.6388218 7.30614216,11.8143077 7.23093393,11.9647241 C7.05544805,12.2655571 6.67940687,12.4034388 6.35350452,12.3156959 C6.00253276,12.2154182 5.75183864,11.9145853 5.75183864,11.5510788 L5.75183864,7.87841004 C5.75183864,7.70292416 5.76437335,7.51490357 5.80197747,7.33941769 C6.05267158,6.19875946 7.00530922,5.43414241 8.17103686,5.43414241 L11.0164151,5.43414241 C11.3047133,5.43414241 11.5930115,5.4216077 11.8813098,5.43414241 C12.3701633,5.45921182 12.7086004,5.81018358 12.7086004,6.2739677 L12.7086004,6.2739677 Z M19.6550263,25.5294747 C19.667561,25.09076 20.0185328,24.7773924 20.5073863,24.7773924 L24.054708,24.7773924 C24.7065127,24.7773924 25.0073457,24.4765594 25.0073457,23.8247547 C25.0073457,22.2955206 24.994811,21.8442712 25.0073457,20.3275718 C25.0073457,20.1646206 25.0574845,19.9891348 25.1326927,19.8387183 C25.3081786,19.5378853 25.6842198,19.4000036 26.0101221,19.4877465 C26.3610939,19.5880242 26.611788,19.8888571 26.611788,20.2523636 L26.611788,23.9250324 C26.611788,24.1005183 26.5992533,24.2885388 26.5616492,24.4640247 C26.3109551,25.604683 25.3583174,26.3693 24.1925898,26.3693 L21.3472116,26.3693 C21.0589133,26.3693 20.7706151,26.3818347 20.4823169,26.3693 C19.9934633,26.3567653 19.6550263,25.9932588 19.6550263,25.5294747 L19.6550263,25.5294747 Z M11.8938445,26.3693 C11.6055463,26.3818347 11.317248,26.3693 11.0289498,26.3693 L8.18357157,26.3693 C7.00530922,26.3693 6.06520629,25.604683 5.81451217,24.4640247 C5.77690805,24.2885388 5.76437335,24.1005183 5.76437335,23.9250324 L5.76437335,20.2523636 C5.76437335,19.8888571 6.01506746,19.5880242 6.36603923,19.4877465 C6.69194158,19.4000036 7.06798275,19.5378853 7.24346863,19.8387183 C7.31867687,19.9891348 7.36881569,20.1646206 7.36881569,20.3275718 C7.3813504,21.8442712 7.36881569,22.2955206 7.36881569,23.8247547 C7.36881569,24.4765594 7.66964863,24.7773924 8.32145333,24.7773924 L11.8687751,24.7773924 C12.3576286,24.7773924 12.7086004,25.09076 12.7211351,25.5294747 C12.7086004,25.9932588 12.3701633,26.3567653 11.8938445,26.3693 Z" id="形状" stroke="#FFFFFF" stroke-width="0.571428571" fill="#FFFFFF" fill-rule="nonzero"></path>
                        <path d="M27.1575549,16.0020144 C27.1074161,16.3905903 26.7940485,16.6788885 26.4054726,16.703958 L5.76081215,16.703958 C5.29702803,16.703958 4.98366039,16.490868 4.88338274,16.1022921 C4.75803568,15.6259733 5.09647274,15.1496544 5.58532627,15.1120503 L26.2299867,15.1120503 C26.3553338,15.1120503 26.4806808,15.1120503 26.5934932,15.1496544 C26.9695344,15.2499321 27.2076938,15.6134386 27.1575549,16.0020144 Z" id="路径" stroke="#FFFFFF" stroke-width="0.571428571" fill="#FFFFFF" fill-rule="nonzero" opacity="0.5"></path>
                    </g>
                </g>
                <g opacity="0.119999997" mask="url(#mask-2)">
                    <g transform="translate(106.000000, 42.000000)">
                        <path d="M9.58632813,12.7982422 L2.47714844,12.7982422 C2.47070313,12.7982422 2.46640625,12.7939453 2.46640625,12.7875 L2.46640625,7.26171875 C2.46640625,7.25527344 2.47070313,7.25097656 2.47714844,7.25097656 L9.58632813,7.25097656 C9.59277344,7.25097656 9.59707031,7.25527344 9.59707031,7.26171875 L9.59707031,12.7875 C9.59707031,12.7939453 9.59277344,12.7982422 9.58632813,12.7982422 Z M12.6242188,12.7037109 L10.5660156,11.3308594 C10.4564453,11.2578125 10.3898438,11.1332031 10.3898438,11.0021484 L10.3898438,9.04921875 C10.3898438,8.91601563 10.4564453,8.79355469 10.5660156,8.72050781 L12.6242188,7.34765625 C12.684375,7.30683594 12.7660156,7.34980469 12.7660156,7.42285156 L12.7660156,12.6285156 C12.7660156,12.7015625 12.6865234,12.7445313 12.6242188,12.7037109 L12.6242188,12.7037109 Z" id="形状" fill="#FFFFFF" fill-rule="nonzero"></path>
                        <path d="M9.57558594,7.70214844 L7.41425781,11.1568359 C7.29179687,11.3544922 7.00605469,11.3587891 6.87714844,11.1654297 L5.809375,9.56269531 C5.59023437,9.23398438 5.1046875,9.23398438 4.88554687,9.56269531 L2.87460937,12.58125 C2.79296875,12.7058594 2.88105469,12.8712891 3.02929687,12.8712891 L13.0130859,12.8712891 C13.1591797,12.8712891 13.2494141,12.7101563 13.1720703,12.5855469 L10.1169922,7.70214844 C9.99238281,7.50234375 9.70019531,7.50234375 9.57558594,7.70214844 L9.57558594,7.70214844 Z" id="路径" fill="#FFFFFF" fill-rule="nonzero"></path>
                        <path d="M4.3484375,7.18867188 C4.3484375,7.69651496 4.76012566,8.10820313 5.26796875,8.10820313 C5.77581184,8.10820313 6.1875,7.69651496 6.1875,7.18867188 C6.1875,6.86015499 6.01223835,6.55659287 5.72773439,6.39233442 C5.44323042,6.22807597 5.09270708,6.22807597 4.80820311,6.39233442 C4.52369915,6.55659287 4.3484375,6.86015499 4.3484375,7.18867188 L4.3484375,7.18867188 Z" id="路径" fill="#FFFFFF" fill-rule="nonzero"></path>
                        <path d="M11.8035156,0.0107421875 L0.966796875,0.0107421875 C0.433984375,0.0107421875 0.0021484375,0.442578125 0.0021484375,0.975390625 L0.0021484375,18.3326172 C0.0021484375,18.8654297 0.433984375,19.2972656 0.966796875,19.2972656 L15.1099609,19.2972656 C15.6427734,19.2972656 16.0746094,18.8654297 16.0746094,18.3326172 L16.0746094,4.28183594 L11.8035156,0.0107421875 Z" id="路径" fill="#0C96FF" fill-rule="nonzero"></path>
                        <text id="w" fill="none" font-family="SFPro-Medium, SF Pro" font-size="14" font-weight="400">
                            <tspan x="2.21630859" y="14.25" fill="#FFFFFF">w</tspan>
                        </text>
                        <path d="M11.8035156,0.0107421875 L11.8035156,3.3171875 C11.8035156,3.85 12.2353516,4.28183594 12.7681641,4.28183594 L16.0746094,4.28183594 L11.8035156,0.0107421875 Z" id="路径" fill="#94D4FF" fill-rule="nonzero"></path>
                    </g>
                </g>
                <g opacity="0.119999997" mask="url(#mask-2)">
                    <g transform="translate(135.000000, 51.000000)">
                        <path d="M9.58632813,12.7982422 L2.47714844,12.7982422 C2.47070313,12.7982422 2.46640625,12.7939453 2.46640625,12.7875 L2.46640625,7.26171875 C2.46640625,7.25527344 2.47070313,7.25097656 2.47714844,7.25097656 L9.58632813,7.25097656 C9.59277344,7.25097656 9.59707031,7.25527344 9.59707031,7.26171875 L9.59707031,12.7875 C9.59707031,12.7939453 9.59277344,12.7982422 9.58632813,12.7982422 Z M12.6242188,12.7037109 L10.5660156,11.3308594 C10.4564453,11.2578125 10.3898438,11.1332031 10.3898438,11.0021484 L10.3898438,9.04921875 C10.3898438,8.91601563 10.4564453,8.79355469 10.5660156,8.72050781 L12.6242188,7.34765625 C12.684375,7.30683594 12.7660156,7.34980469 12.7660156,7.42285156 L12.7660156,12.6285156 C12.7660156,12.7015625 12.6865234,12.7445313 12.6242188,12.7037109 L12.6242188,12.7037109 Z" id="形状" fill="#FFFFFF" fill-rule="nonzero"></path>
                        <path d="M9.57558594,7.70214844 L7.41425781,11.1568359 C7.29179687,11.3544922 7.00605469,11.3587891 6.87714844,11.1654297 L5.809375,9.56269531 C5.59023437,9.23398438 5.1046875,9.23398438 4.88554687,9.56269531 L2.87460937,12.58125 C2.79296875,12.7058594 2.88105469,12.8712891 3.02929687,12.8712891 L13.0130859,12.8712891 C13.1591797,12.8712891 13.2494141,12.7101563 13.1720703,12.5855469 L10.1169922,7.70214844 C9.99238281,7.50234375 9.70019531,7.50234375 9.57558594,7.70214844 L9.57558594,7.70214844 Z" id="路径" fill="#FFFFFF" fill-rule="nonzero"></path>
                        <path d="M4.3484375,7.18867188 C4.3484375,7.69651496 4.76012566,8.10820313 5.26796875,8.10820313 C5.77581184,8.10820313 6.1875,7.69651496 6.1875,7.18867188 C6.1875,6.86015499 6.01223835,6.55659287 5.72773439,6.39233442 C5.44323042,6.22807597 5.09270708,6.22807597 4.80820311,6.39233442 C4.52369915,6.55659287 4.3484375,6.86015499 4.3484375,7.18867188 L4.3484375,7.18867188 Z" id="路径" fill="#FFFFFF" fill-rule="nonzero"></path>
                        <path d="M11.8035156,0.0107421875 L0.966796875,0.0107421875 C0.433984375,0.0107421875 0.0021484375,0.442578125 0.0021484375,0.975390625 L0.0021484375,18.3326172 C0.0021484375,18.8654297 0.433984375,19.2972656 0.966796875,19.2972656 L15.1099609,19.2972656 C15.6427734,19.2972656 16.0746094,18.8654297 16.0746094,18.3326172 L16.0746094,4.28183594 L11.8035156,0.0107421875 Z" id="路径" fill="#12A313" fill-rule="nonzero"></path>
                        <text id="X" fill="none" font-family="SFPro-Medium, SF Pro" font-size="11" font-weight="400">
                            <tspan x="4.1328125" y="14.25" fill="#FFFFFF">X</tspan>
                        </text>
                        <path d="M11.8035156,0.0107421875 L11.8035156,3.3171875 C11.8035156,3.85 12.2353516,4.28183594 12.7681641,4.28183594 L16.0746094,4.28183594 L11.8035156,0.0107421875 Z" id="路径" fill="#96EEAA" fill-rule="nonzero"></path>
                    </g>
                </g>
                <g opacity="0.119999997" mask="url(#mask-2)">
                    <g transform="translate(139.000000, 17.000000)">
                        <path d="M9.58632813,12.7982422 L2.47714844,12.7982422 C2.47070313,12.7982422 2.46640625,12.7939453 2.46640625,12.7875 L2.46640625,7.26171875 C2.46640625,7.25527344 2.47070313,7.25097656 2.47714844,7.25097656 L9.58632813,7.25097656 C9.59277344,7.25097656 9.59707031,7.25527344 9.59707031,7.26171875 L9.59707031,12.7875 C9.59707031,12.7939453 9.59277344,12.7982422 9.58632813,12.7982422 Z M12.6242188,12.7037109 L10.5660156,11.3308594 C10.4564453,11.2578125 10.3898438,11.1332031 10.3898438,11.0021484 L10.3898438,9.04921875 C10.3898438,8.91601563 10.4564453,8.79355469 10.5660156,8.72050781 L12.6242188,7.34765625 C12.684375,7.30683594 12.7660156,7.34980469 12.7660156,7.42285156 L12.7660156,12.6285156 C12.7660156,12.7015625 12.6865234,12.7445313 12.6242188,12.7037109 L12.6242188,12.7037109 Z" id="形状" fill="#FFFFFF" fill-rule="nonzero"></path>
                        <path d="M9.57558594,7.70214844 L7.41425781,11.1568359 C7.29179688,11.3544922 7.00605469,11.3587891 6.87714844,11.1654297 L5.809375,9.56269531 C5.59023438,9.23398438 5.1046875,9.23398438 4.88554688,9.56269531 L2.87460938,12.58125 C2.79296875,12.7058594 2.88105469,12.8712891 3.02929688,12.8712891 L13.0130859,12.8712891 C13.1591797,12.8712891 13.2494141,12.7101563 13.1720703,12.5855469 L10.1169922,7.70214844 C9.99238281,7.50234375 9.70019531,7.50234375 9.57558594,7.70214844 L9.57558594,7.70214844 Z" id="路径" fill="#FFFFFF" fill-rule="nonzero"></path>
                        <path d="M4.3484375,7.18867188 C4.3484375,7.69651496 4.76012566,8.10820313 5.26796875,8.10820313 C5.77581184,8.10820313 6.1875,7.69651496 6.1875,7.18867188 C6.1875,6.86015499 6.01223835,6.55659287 5.72773439,6.39233442 C5.44323042,6.22807597 5.09270708,6.22807597 4.80820311,6.39233442 C4.52369915,6.55659287 4.3484375,6.86015499 4.3484375,7.18867188 L4.3484375,7.18867188 Z" id="路径" fill="#FFFFFF" fill-rule="nonzero"></path>
                        <path d="M11.8035156,0.0107421875 L0.966796875,0.0107421875 C0.433984375,0.0107421875 0.0021484375,0.442578125 0.0021484375,0.975390625 L0.0021484375,18.3326172 C0.0021484375,18.8654297 0.433984375,19.2972656 0.966796875,19.2972656 L15.1099609,19.2972656 C15.6427734,19.2972656 16.0746094,18.8654297 16.0746094,18.3326172 L16.0746094,4.28183594 L11.8035156,0.0107421875 Z" id="路径" fill="#F2733D" fill-rule="nonzero"></path>
                        <text id="p" fill="none" font-family="SFPro-Medium, SF Pro" font-size="12" font-weight="400">
                            <tspan x="5.00731707" y="13.25" fill="#FFFFFF">p</tspan>
                        </text>
                        <path d="M11.8035156,0.0107421875 L11.8035156,3.3171875 C11.8035156,3.85 12.2353516,4.28183594 12.7681641,4.28183594 L16.0746094,4.28183594 L11.8035156,0.0107421875 Z" id="路径" fill="#FFB494" fill-rule="nonzero"></path>
                    </g>
                </g>
            </g>
        </g>
    </g>
</svg>