<?xml version="1.0" encoding="UTF-8"?>
<svg width="162px" height="80px" viewBox="0 0 162 80" version="1.1" xmlns="http://www.w3.org/2000/svg" xmlns:xlink="http://www.w3.org/1999/xlink">
    <title>编组 16</title>
    <g id="首页改版" stroke="none" stroke-width="1" fill="none" fill-rule="evenodd">
        <g id="V2-首页" transform="translate(-17.000000, -254.000000)">
            <g id="编组-16" transform="translate(17.000000, 254.000000)">
                <rect id="矩形" fill="#FFECE8" x="0" y="0" width="162" height="80" rx="12"></rect>
                <g id="编组" transform="translate(138.000000, 52.000000)" fill="#FF7575" fill-rule="nonzero" opacity="0.119999997">
                    <path d="M13.2453282,6.35378928 C12.917331,6.35513644 12.6136677,6.18092965 12.4492767,5.89709943 C12.2848857,5.6132692 12.2848857,5.26318433 12.4492767,4.97935411 C12.6136677,4.69552388 12.917331,4.52131709 13.2453282,4.52266425 C13.7488831,4.52561403 14.1555417,4.93465539 14.1555417,5.43821895 C14.1555417,5.94178251 13.7488831,6.35082387 13.2453282,6.35376581 L13.2453282,6.35378928 Z M12.3084532,14.1537813 C12.3084532,14.3150356 12.2443941,14.4696852 12.1303686,14.5837077 C12.0163431,14.6977303 11.8616919,14.7617819 11.7004376,14.7617819 L4.29600023,14.7617819 C4.13459435,14.7620177 3.97971827,14.6980652 3.86550345,14.5840174 C3.75128863,14.4699696 3.68710961,14.3151873 3.68710961,14.1537813 L3.68710961,11.7644376 L12.3084532,11.7644376 L12.3084532,14.1537813 L12.3084532,14.1537813 Z M3.68620336,1.81332841 C3.68620336,1.47821903 3.95820336,1.20621903 4.29420336,1.20621903 L11.676422,1.20621903 C12.011547,1.20621903 12.283547,1.47821903 12.283547,1.81332841 L12.283547,2.29689089 L3.68620336,2.29689089 L3.68620336,1.81332841 Z M14.576875,2.29689089 L13.55375,2.29689089 L13.55375,1.42310966 C13.5539865,1.04561327 13.4041346,0.683509544 13.1372087,0.416574843 C12.8702828,0.149640143 12.508184,-0.000223716309 12.1306876,6.16886853e-08 L3.87912523,6.16886853e-08 C3.09423462,6.16886853e-08 2.45690652,0.637344047 2.45690652,1.42221903 L2.45690652,2.29689089 L1.42221903,2.29689089 C1.04486881,2.29689082 0.682986881,2.44685354 0.416243516,2.71376394 C0.149500152,2.98067435 -0.000235992601,3.34265009 2.33472743e-08,3.72000023 L2.33472743e-08,12.3164376 C-0.00024014003,12.6937904 0.149494173,13.0557702 0.416237987,13.322684 C0.682981802,13.5895978 1.0448661,13.7395626 1.42221903,13.7395625 L2.45689089,13.7395625 L2.45689089,14.5768907 C2.45665459,14.9542408 2.60639073,15.3162165 2.87313409,15.5831269 C3.13987746,15.8500374 3.50175939,16.0000001 3.87910961,16.0000001 L12.130672,16.0000001 C12.9161417,16.0000001 13.5528907,15.363251 13.5528907,14.5777813 L13.5528907,13.7395625 L14.5777813,13.7395625 C14.9551341,13.7397989 15.3171122,13.5900606 15.5840231,13.3233138 C15.850934,13.0565671 16.0008906,12.6946811 16.0008906,12.3173282 L16.0008906,3.71910961 C16.0008906,2.9336399 15.3641416,2.29689089 14.5786719,2.29689089 L14.576875,2.29689089 Z M5.38489083,12.8782188 L8.40531264,12.8782188 C8.66206464,12.8782188 8.87020326,13.0863574 8.87020326,13.3431094 C8.87020326,13.5998614 8.66206464,13.808 8.40531264,13.808 L5.38489083,13.808 C5.12813883,13.808 4.92000021,13.5998614 4.92000021,13.3431094 C4.92000021,13.0863574 5.12813883,12.8782188 5.38489083,12.8782188 Z" id="形状"></path>
                </g>
                <g id="编组" transform="translate(137.000000, 18.000000)" fill="#8844D7" fill-rule="nonzero" opacity="0.119999997">
                    <path d="M15.752966,1.68781778 L12.3773304,1.68781778 C12.3773304,0.759517998 11.6178124,-2.66453526e-15 10.6895126,-2.66453526e-15 L7.31387708,-2.66453526e-15 C6.3855773,-2.66453526e-15 5.62605928,0.759517998 5.62605928,1.68781778 L2.25042372,1.68781778 C1.01269067,1.68781778 0,2.70050845 0,3.9382415 L0,12.9399364 C0,14.1776694 1.01269067,15.1903601 2.25042372,15.1903601 L15.752966,15.1903601 C16.9906991,15.1903601 18.0033897,14.1776694 18.0033897,12.9399364 L18.0033897,3.9382415 C18.0033897,2.70050845 16.9906991,1.68781778 15.752966,1.68781778 L15.752966,1.68781778 Z M9.00169486,11.8147245 C7.13705807,11.8147245 5.62605928,10.3037257 5.62605928,8.43908893 C5.62605928,6.57445213 7.13705807,5.06345336 9.00169486,5.06345336 C10.8663317,5.06345336 12.3773304,6.57445214 12.3773304,8.43908893 C12.3773304,10.3037257 10.8663316,11.8147245 9.00169486,11.8147245 L9.00169486,11.8147245 Z M15.5419888,5.62605928 L14.4167769,5.62605928 C14.1073437,5.62605928 13.854171,5.37288661 13.854171,5.06345336 C13.854171,4.7540201 14.1073437,4.50084742 14.4167769,4.50084742 L15.5419888,4.50084742 C15.851422,4.50084742 16.1045947,4.7540201 16.1045947,5.06345336 C16.1045947,5.37288663 15.851422,5.62605928 15.5419888,5.62605928 Z" id="形状"></path>
                    <path d="M6.75127114,8.43908893 C6.75127114,9.68184524 7.75868738,10.6895126 9.00169486,10.6895126 C10.2447023,10.6895126 11.2521186,9.68184524 11.2521186,8.43908893 C11.2521186,7.19633262 10.2444512,6.18866522 9.00169486,6.18866522 C7.75868738,6.18866522 6.75127114,7.19633263 6.75127114,8.43908893 Z" id="路径"></path>
                </g>
                <g id="编组" opacity="0.119999997" transform="translate(105.000000, 45.000000)" fill-rule="nonzero">
                    <path d="M0,2 L0,16 C1.3527075e-16,17.1045695 0.8954305,18 2,18 L14,18 C15.1045695,18 16,17.1045695 16,16 L16,5.09990625 L16,5.09990625 L10.560066,0 L2,0 C0.8954305,2.02906125e-16 -1.3527075e-16,0.8954305 0,2 Z" id="路径" fill="#FF5562"></path>
                    <path d="M17,5 L12.058843,5 C11.7941322,5 11.5118844,4.91176308 11.3176529,4.73528925 C11.1058843,4.5737054 11,4.33822313 11,4.11763084 L11,0 L17,5 Z" id="路径" fill="#FFBBC0"></path>
                    <path d="M12.9493732,12.5292013 L10.9403765,9.4846048 C10.8807154,9.39421143 10.7771329,9.34069073 10.6670252,9.34336518 C10.5546106,9.34336518 10.4581691,9.40604026 10.3936739,9.4846048 L9.31684441,11.1168051 L6.9058073,7.30333547 C6.8461462,7.2129421 6.74256368,7.1594214 6.63245597,7.16209585 C6.52004136,7.16209585 6.42359988,7.22477093 6.35940601,7.30333547 L3.04814792,12.5292013 C2.98395069,12.6243644 2.98395069,12.7477078 3.04814792,12.8428709 C3.11234179,12.9529201 3.20878327,13 3.32149925,13 L12.6763232,13 C12.7887378,13 12.9011524,12.9370307 12.9656477,12.8428709 C13.0138684,12.733116 13.0138684,12.6074716 12.9493732,12.5292013 Z M10.2170654,6.76956742 C10.2114333,7.05350538 10.3633603,7.31826004 10.6143198,7.46184015 C10.8652793,7.60542027 11.1761091,7.60542027 11.4270686,7.46184015 C11.6780281,7.31826004 11.8299551,7.05350538 11.824323,6.76956742 C11.815845,6.34215777 11.4585432,6 11.0206942,6 C10.5828452,6 10.2255434,6.34215777 10.2170654,6.76956742 Z" id="形状" fill="#FFFFFF"></path>
                </g>
                <g id="编组" transform="translate(116.000000, 25.000000)">
                    <rect id="矩形" fill="#FF4513" x="0" y="0" width="32" height="32" rx="6"></rect>
                    <path d="M20.4697822,5.44667711 C20.7580804,5.43414241 21.0463786,5.44667711 21.3346769,5.44667711 L24.1800551,5.44667711 C25.3583174,5.44667711 26.2984204,6.21129417 26.5491145,7.3519524 C26.5867186,7.52743828 26.5992533,7.71545886 26.5992533,7.89094475 L26.5992533,11.5636135 C26.5992533,11.92712 26.3485592,12.227953 25.9975874,12.3282306 C25.6716851,12.4159735 25.2956439,12.2780918 25.120158,11.9772588 C25.0449498,11.8268424 24.994811,11.6513565 24.994811,11.4884053 C24.9822763,9.97170591 24.994811,9.5204565 24.994811,7.99122239 C24.994811,7.33941769 24.693978,7.03858475 24.0421733,7.03858475 L20.5073863,7.03858475 C20.0185328,7.03858475 19.667561,6.72521711 19.6550263,6.2865024 C19.6550263,5.81018358 19.9934633,5.45921182 20.4697822,5.44667711 Z M12.7086004,6.2739677 C12.6960657,6.7126824 12.3450939,7.02605005 11.8562404,7.02605005 L8.30891863,7.02605005 C7.65711392,7.02605005 7.35628098,7.32688298 7.35628098,7.97868769 C7.35628098,9.50792179 7.36881569,9.9591712 7.35628098,11.4758706 C7.35628098,11.6388218 7.30614216,11.8143077 7.23093393,11.9647241 C7.05544805,12.2655571 6.67940687,12.4034388 6.35350452,12.3156959 C6.00253276,12.2154182 5.75183864,11.9145853 5.75183864,11.5510788 L5.75183864,7.87841004 C5.75183864,7.70292416 5.76437335,7.51490357 5.80197747,7.33941769 C6.05267158,6.19875946 7.00530922,5.43414241 8.17103686,5.43414241 L11.0164151,5.43414241 C11.3047133,5.43414241 11.5930115,5.4216077 11.8813098,5.43414241 C12.3701633,5.45921182 12.7086004,5.81018358 12.7086004,6.2739677 L12.7086004,6.2739677 Z M19.6550263,25.5294747 C19.667561,25.09076 20.0185328,24.7773924 20.5073863,24.7773924 L24.054708,24.7773924 C24.7065127,24.7773924 25.0073457,24.4765594 25.0073457,23.8247547 C25.0073457,22.2955206 24.994811,21.8442712 25.0073457,20.3275718 C25.0073457,20.1646206 25.0574845,19.9891348 25.1326927,19.8387183 C25.3081786,19.5378853 25.6842198,19.4000036 26.0101221,19.4877465 C26.3610939,19.5880242 26.611788,19.8888571 26.611788,20.2523636 L26.611788,23.9250324 C26.611788,24.1005183 26.5992533,24.2885388 26.5616492,24.4640247 C26.3109551,25.604683 25.3583174,26.3693 24.1925898,26.3693 L21.3472116,26.3693 C21.0589133,26.3693 20.7706151,26.3818347 20.4823169,26.3693 C19.9934633,26.3567653 19.6550263,25.9932588 19.6550263,25.5294747 L19.6550263,25.5294747 Z M11.8938445,26.3693 C11.6055463,26.3818347 11.317248,26.3693 11.0289498,26.3693 L8.18357157,26.3693 C7.00530922,26.3693 6.06520629,25.604683 5.81451217,24.4640247 C5.77690805,24.2885388 5.76437335,24.1005183 5.76437335,23.9250324 L5.76437335,20.2523636 C5.76437335,19.8888571 6.01506746,19.5880242 6.36603923,19.4877465 C6.69194158,19.4000036 7.06798275,19.5378853 7.24346863,19.8387183 C7.31867687,19.9891348 7.36881569,20.1646206 7.36881569,20.3275718 C7.3813504,21.8442712 7.36881569,22.2955206 7.36881569,23.8247547 C7.36881569,24.4765594 7.66964863,24.7773924 8.32145333,24.7773924 L11.8687751,24.7773924 C12.3576286,24.7773924 12.7086004,25.09076 12.7211351,25.5294747 C12.7086004,25.9932588 12.3701633,26.3567653 11.8938445,26.3693 Z" id="形状" stroke="#FFFFFF" stroke-width="0.571428571" fill="#FFFFFF" fill-rule="nonzero"></path>
                    <path d="M27.1575549,16.0020144 C27.1074161,16.3905903 26.7940485,16.6788885 26.4054726,16.703958 L5.76081215,16.703958 C5.29702803,16.703958 4.98366039,16.490868 4.88338274,16.1022921 C4.75803568,15.6259733 5.09647274,15.1496544 5.58532627,15.1120503 L26.2299867,15.1120503 C26.3553338,15.1120503 26.4806808,15.1120503 26.5934932,15.1496544 C26.9695344,15.2499321 27.2076938,15.6134386 27.1575549,16.0020144 Z" id="路径" stroke="#FFFFFF" stroke-width="0.571428571" fill="#FFFFFF" fill-rule="nonzero" opacity="0.5"></path>
                </g>
            </g>
        </g>
    </g>
</svg>