<?xml version="1.0" encoding="UTF-8"?>
<svg width="119px" height="31px" viewBox="0 0 119 31" version="1.1" xmlns="http://www.w3.org/2000/svg" xmlns:xlink="http://www.w3.org/1999/xlink">
    <title>编组</title>
    <defs>
        <linearGradient x1="50%" y1="0%" x2="50%" y2="100%" id="linearGradient-1">
            <stop stop-color="#F9AECA" offset="0%"></stop>
            <stop stop-color="#FF4966" offset="100%"></stop>
        </linearGradient>
        <linearGradient x1="100%" y1="50%" x2="0%" y2="50%" id="linearGradient-2">
            <stop stop-color="#FF809F" stop-opacity="0" offset="0%"></stop>
            <stop stop-color="#FF4966" offset="100%"></stop>
        </linearGradient>
        <linearGradient x1="100%" y1="50%" x2="0%" y2="50%" id="linearGradient-3">
            <stop stop-color="#3FDB9D" offset="0%"></stop>
            <stop stop-color="#3FDB9D" stop-opacity="0" offset="100%"></stop>
        </linearGradient>
        <linearGradient x1="50%" y1="0%" x2="50%" y2="100%" id="linearGradient-4">
            <stop stop-color="#34CB42" offset="0%"></stop>
            <stop stop-color="#43E0A2" offset="100%"></stop>
        </linearGradient>
        <linearGradient x1="50%" y1="0%" x2="50%" y2="100%" id="linearGradient-5">
            <stop stop-color="#FF5C49" offset="0%"></stop>
            <stop stop-color="#FFC549" offset="100%"></stop>
        </linearGradient>
    </defs>
    <g id="首页改版" stroke="none" stroke-width="1" fill="none" fill-rule="evenodd">
        <g id="V2-首页" transform="translate(-125.000000, -640.000000)">
            <g id="编组" transform="translate(125.000000, 640.000000)">
                <text id="猜你喜欢" font-family="PingFangSC-Medium, PingFang SC" font-size="16" font-weight="400" letter-spacing="0.2" fill="#121314">
                    <tspan x="30" y="24">猜你喜欢</tspan>
                </text>
                <path d="M17.7720503,16.1787013 C17.5357494,15.6136029 17.197169,15.1084668 16.7686531,14.6741951 C16.3401372,14.2417404 15.8428472,13.9037716 15.2873636,13.6657398 C14.7142457,13.4204398 14.1076224,13.2968814 13.4816013,13.2968814 C12.6122254,13.2968814 11.7640109,13.5421813 11.026893,14.0055256 C10.850549,14.1163648 10.6830223,14.2381063 10.5243127,14.37075 C10.3656031,14.2381063 10.1980763,14.1163648 10.0217323,14.0055256 C9.28461447,13.5421813 8.43639992,13.2968814 7.56702409,13.2968814 C6.94100295,13.2968814 6.33437965,13.4204398 5.76126171,13.6657398 C5.2075416,13.9019545 4.70848813,14.2417404 4.27997226,14.6741951 C3.84969294,15.1084668 3.51287593,15.6136029 3.276575,16.1787013 C3.03145686,16.7656041 2.90625264,17.3888476 2.90625264,18.0302615 C2.90625264,18.6353347 3.02616654,19.2658464 3.26423092,19.9072603 C3.46349962,20.4432861 3.74917687,20.9992992 4.11420891,21.5607635 C4.69261718,22.4492944 5.48792854,23.375983 6.47545484,24.3153909 C8.11192699,25.8725912 9.73252819,26.9482768 9.80130234,26.9918857 L10.2192376,27.2680753 C10.4043988,27.3898167 10.6424631,27.3898167 10.8276243,27.2680753 L11.2455596,26.9918857 C11.3143337,26.9464598 12.9331715,25.8725912 14.5714071,24.3153909 C15.5589334,23.375983 16.3542447,22.4492944 16.932653,21.5607635 C17.297685,20.9992992 17.5851257,20.4432861 17.782631,19.9072603 C18.0206954,19.2658464 18.1406276,18.6353347 18.1406276,18.0302615 C18.1423727,17.3888476 18.0171685,16.7656041 17.7720503,16.1787013 Z" id="路径" fill="url(#linearGradient-1)" fill-rule="nonzero" transform="translate(10.523440, 20.328131) rotate(-45.000000) translate(-10.523440, -20.328131) "></path>
                <path d="M19,19.15625 L26,19.15625 L26,19.15625 L26,21.15625 L19,21.15625 C18.4477153,21.15625 18,20.7085347 18,20.15625 C18,19.6039653 18.4477153,19.15625 19,19.15625 Z" id="矩形" fill="url(#linearGradient-2)" opacity="0.5"></path>
                <path d="M95.78125,19.15625 L102.78125,19.15625 C103.333535,19.15625 103.78125,19.6039653 103.78125,20.15625 C103.78125,20.7085347 103.333535,21.15625 102.78125,21.15625 L95.78125,21.15625 L95.78125,21.15625 L95.78125,19.15625 Z" id="矩形" fill="url(#linearGradient-3)" opacity="0.5"></path>
                <path d="M116.122729,14.286365 C115.940959,13.8625412 115.680513,13.4836891 115.350885,13.1579853 C115.021257,12.8336442 114.638727,12.5801677 114.211432,12.4016438 C113.770572,12.2176689 113.303938,12.125 112.822384,12.125 C112.153633,12.125 111.50116,12.3089749 110.934146,12.6564832 C110.798497,12.7396126 110.66963,12.8309187 110.547546,12.9304014 C110.425462,12.8309187 110.296595,12.7396126 110.160946,12.6564832 C109.593932,12.3089749 108.941459,12.125 108.272709,12.125 C107.791154,12.125 107.324521,12.2176689 106.883661,12.4016438 C106.457722,12.5788049 106.073835,12.8336442 105.744207,13.1579853 C105.413223,13.4836891 105.154133,13.8625412 104.972363,14.286365 C104.783811,14.7265421 104.6875,15.1939747 104.6875,15.6750351 C104.6875,16.12884 104.779741,16.6017238 104.962868,17.0827842 C105.116152,17.4848035 105.335903,17.9018134 105.616697,18.3229116 C106.061627,18.9893098 106.673405,19.6843262 107.43304,20.3888822 C108.691865,21.5567824 109.938481,22.3635466 109.991384,22.3962533 L110.312873,22.6033954 C110.455305,22.6947015 110.638431,22.6947015 110.780863,22.6033954 L111.102351,22.3962533 C111.155255,22.3621838 112.400514,21.5567824 113.660696,20.3888822 C114.420331,19.6843262 115.032109,18.9893098 115.477039,18.3229116 C115.757833,17.9018134 115.978941,17.4848035 116.130868,17.0827842 C116.313994,16.6017238 116.40625,16.12884 116.40625,15.6750351 C116.407592,15.1939747 116.311281,14.7265421 116.122729,14.286365 Z" id="路径" fill="url(#linearGradient-4)" fill-rule="nonzero" transform="translate(110.546875, 17.398437) rotate(45.000000) translate(-110.546875, -17.398437) "></path>
                <path d="M30.6325598,4.68106163 C30.4871439,4.35142092 30.2787867,4.05675816 30.0150846,3.80343299 C29.7513825,3.55116775 29.4453579,3.35401928 29.1035218,3.21516741 C28.7508339,3.07207578 28.3775272,3 27.9922835,3 C27.457283,3 26.9353048,3.14309163 26.4816938,3.41337581 C26.3731744,3.47803203 26.270081,3.54904787 26.1724136,3.62642335 C26.0747461,3.54904787 25.9716527,3.47803203 25.8631334,3.41337581 C25.4095224,3.14309163 24.8875442,3 24.3525437,3 C23.9672999,3 23.5939932,3.07207578 23.2413053,3.21516741 C22.9005544,3.35295935 22.5934446,3.55116775 22.3297425,3.80343299 C22.0649553,4.05675816 21.8576833,4.35142092 21.7122673,4.68106163 C21.5614254,5.0234216 21.4843766,5.38698033 21.4843766,5.76113843 C21.4843766,6.11409778 21.5581698,6.48189626 21.704671,6.85605437 C21.8272978,7.16873607 22.0030992,7.49307709 22.2277343,7.82059793 C22.5836779,8.3389076 23.0731003,8.87947597 23.6808087,9.4274639 C24.6878685,10.3358307 25.6851616,10.963314 25.7274841,10.9887525 L25.984675,11.1498631 C26.0986204,11.220879 26.2451215,11.220879 26.3590669,11.1498631 L26.6162578,10.9887525 C26.6585804,10.9622541 27.6547882,10.3358307 28.6629332,9.4274639 C29.2706417,8.87947597 29.7600641,8.3389076 30.1160076,7.82059793 C30.3406427,7.49307709 30.5175293,7.16873607 30.639071,6.85605437 C30.7855721,6.48189626 30.8593766,6.11409778 30.8593766,5.76113843 C30.8604505,5.38698033 30.7834018,5.0234216 30.6325598,4.68106163 Z" id="路径" fill="url(#linearGradient-5)" fill-rule="nonzero" transform="translate(26.171877, 7.101562) rotate(45.000000) translate(-26.171877, -7.101562) "></path>
            </g>
        </g>
    </g>
</svg>