<?xml version="1.0" encoding="UTF-8"?>
<svg width="200px" height="142px" viewBox="0 0 200 142" version="1.1" xmlns="http://www.w3.org/2000/svg" xmlns:xlink="http://www.w3.org/1999/xlink">
    <title>缺省页-无购物车</title>
    <defs>
        <linearGradient x1="50%" y1="0%" x2="50%" y2="86.0706991%" id="linearGradient-1">
            <stop stop-color="#FBD3D2" offset="0%"></stop>
            <stop stop-color="#F8F4F3" offset="100%"></stop>
        </linearGradient>
        <linearGradient x1="50%" y1="0%" x2="50%" y2="43.9096274%" id="linearGradient-2">
            <stop stop-color="#F8E5E6" offset="0%"></stop>
            <stop stop-color="#F6F3F3" offset="100%"></stop>
        </linearGradient>
        <linearGradient x1="50%" y1="0%" x2="50%" y2="86.0706991%" id="linearGradient-3">
            <stop stop-color="#FBD9D8" offset="0%"></stop>
            <stop stop-color="#F8F4F3" offset="100%"></stop>
        </linearGradient>
        <linearGradient x1="50%" y1="0%" x2="50%" y2="43.9096274%" id="linearGradient-4">
            <stop stop-color="#F8E5E6" offset="0%"></stop>
            <stop stop-color="#FCECEC" offset="100%"></stop>
        </linearGradient>
        <linearGradient x1="50%" y1="0%" x2="50%" y2="86.0706991%" id="linearGradient-5">
            <stop stop-color="#FBD9D8" offset="0%"></stop>
            <stop stop-color="#F8F4F3" offset="100%"></stop>
        </linearGradient>
        <linearGradient x1="50%" y1="0%" x2="50%" y2="43.9096274%" id="linearGradient-6">
            <stop stop-color="#F8E5E6" offset="0%"></stop>
            <stop stop-color="#F6F3F3" offset="100%"></stop>
        </linearGradient>
        <linearGradient x1="50%" y1="0%" x2="50%" y2="100%" id="linearGradient-7">
            <stop stop-color="#FCD5D4" offset="0%"></stop>
            <stop stop-color="#FEE2E0" offset="100%"></stop>
        </linearGradient>
        <linearGradient x1="50%" y1="0%" x2="50%" y2="88.0272486%" id="linearGradient-8">
            <stop stop-color="#FCD0D0" offset="0%"></stop>
            <stop stop-color="#F3F4F8" stop-opacity="0" offset="100%"></stop>
        </linearGradient>
        <linearGradient x1="50%" y1="0%" x2="50%" y2="100%" id="linearGradient-9">
            <stop stop-color="#F8E8E8" offset="0%"></stop>
            <stop stop-color="#F4F5F6" stop-opacity="0" offset="100%"></stop>
        </linearGradient>
        <linearGradient x1="50%" y1="0%" x2="50%" y2="88.0272486%" id="linearGradient-10">
            <stop stop-color="#FCD1D0" offset="0%"></stop>
            <stop stop-color="#F8F4F3" offset="100%"></stop>
        </linearGradient>
        <linearGradient x1="50%" y1="0%" x2="50%" y2="100%" id="linearGradient-11">
            <stop stop-color="#F8E8E8" offset="0%"></stop>
            <stop stop-color="#F6F4F4" offset="100%"></stop>
        </linearGradient>
        <linearGradient x1="51.503123%" y1="16.1475966%" x2="51.503123%" y2="82.0641477%" id="linearGradient-12">
            <stop stop-color="#FCDBDB" offset="0%"></stop>
            <stop stop-color="#F6F3F4" stop-opacity="0" offset="100%"></stop>
        </linearGradient>
        <linearGradient x1="39.2029396%" y1="23.553719%" x2="58.6143879%" y2="69.9286358%" id="linearGradient-13">
            <stop stop-color="#FFCE5A" offset="0%"></stop>
            <stop stop-color="#FD5902" offset="100%"></stop>
        </linearGradient>
        <linearGradient x1="50%" y1="34.0430045%" x2="50%" y2="100%" id="linearGradient-14">
            <stop stop-color="#FDDBDB" offset="0%"></stop>
            <stop stop-color="#FEB9B9" offset="100%"></stop>
        </linearGradient>
        <path d="M6.7015273,16.8296977 L4.75928563,10.1161165 L18.4267512,5.53108157 L20.26022,11.746192 L24.1010527,10.2978417 L22.1416981,3.4381367 C20.9078295,1.31507731 19.2294012,0.51306672 17.1064131,1.03210493 C14.9834251,1.55114314 10.0141078,3.43418122 2.19846134,6.68121936 C0.354281184,8.38520515 -0.27958655,10.0735294 0.296858131,11.746192 C0.873302813,13.4188546 1.50717053,15.6171415 2.19846134,18.3410527 L6.7015273,16.8296977 Z" id="path-15"></path>
        <linearGradient x1="24.9306138%" y1="71.4396875%" x2="76.9869429%" y2="76.3379999%" id="linearGradient-16">
            <stop stop-color="#FFCECE" offset="0%"></stop>
            <stop stop-color="#FEA9A9" offset="100%"></stop>
        </linearGradient>
        <linearGradient x1="24.9306138%" y1="71.4396875%" x2="76.9869429%" y2="76.3379999%" id="linearGradient-17">
            <stop stop-color="#FEA9A9" offset="0%"></stop>
            <stop stop-color="#FFCECE" offset="100%"></stop>
        </linearGradient>
        <linearGradient x1="36.9466568%" y1="40.8759164%" x2="84.7381417%" y2="59.8851223%" id="linearGradient-18">
            <stop stop-color="#FFD1D1" offset="0%"></stop>
            <stop stop-color="#FFF1F1" offset="100%"></stop>
        </linearGradient>
        <linearGradient x1="9.31050155%" y1="36.0806969%" x2="78.0843236%" y2="34.7174817%" id="linearGradient-19">
            <stop stop-color="#FFE1E1" offset="0%"></stop>
            <stop stop-color="#FEEAEA" offset="100%"></stop>
        </linearGradient>
        <linearGradient x1="54.1142829%" y1="18.9830254%" x2="54.1142829%" y2="81.1449522%" id="linearGradient-20">
            <stop stop-color="#FFCFCF" offset="0%"></stop>
            <stop stop-color="#FBCFCF" offset="100%"></stop>
        </linearGradient>
        <linearGradient x1="50%" y1="34.0430045%" x2="50%" y2="100%" id="linearGradient-21">
            <stop stop-color="#FDDBDB" offset="0%"></stop>
            <stop stop-color="#FEB9B9" offset="100%"></stop>
        </linearGradient>
        <linearGradient x1="50%" y1="34.0430045%" x2="50%" y2="100%" id="linearGradient-22">
            <stop stop-color="#FDDBDB" offset="0%"></stop>
            <stop stop-color="#FEB9B9" offset="100%"></stop>
        </linearGradient>
        <linearGradient x1="50%" y1="34.0430045%" x2="50%" y2="100%" id="linearGradient-23">
            <stop stop-color="#FDDBDB" offset="0%"></stop>
            <stop stop-color="#FEB9B9" offset="100%"></stop>
        </linearGradient>
        <linearGradient x1="50%" y1="34.0430045%" x2="50%" y2="100%" id="linearGradient-24">
            <stop stop-color="#FDDBDB" offset="0%"></stop>
            <stop stop-color="#FEB9B9" offset="100%"></stop>
        </linearGradient>
    </defs>
    <g id="3-我的" stroke="none" stroke-width="1" fill="none" fill-rule="evenodd" opacity="0.600000024">
        <g id="3-2-0购物车-暂无" transform="translate(-88.000000, -301.000000)">
            <g id="缺省页-无购物车" transform="translate(88.000000, 301.000000)">
                <g id="编组-4">
                    <g id="编组-14" opacity="0.352608817" transform="translate(26.077739, 27.349823)" fill-rule="nonzero">
                        <polygon id="矩形" fill="url(#linearGradient-1)" points="-4.66999819e-14 41.173126 13.820646 1.92825732e-13 13.820646 41.173126"></polygon>
                        <polygon id="矩形备份-12" fill="url(#linearGradient-2)" points="13.3966177 0.042383976 32.2261484 26.9257951 29.5926218 33.9483131 13.3966177 41.173126"></polygon>
                    </g>
                    <g id="编组-14备份-5" transform="translate(108.551237, 26.289753)" fill-rule="nonzero">
                        <polygon id="矩形" fill="url(#linearGradient-3)" points="-8.30943933e-14 27.9502166 21.3965682 0.424028269 19.5053004 33.7102473"></polygon>
                        <polygon id="矩形备份-12" fill="url(#linearGradient-4)" points="21.3965682 0 53.4275618 36.8904594 19.5053004 33.8459413"></polygon>
                    </g>
                    <g id="编组-14备份-9" transform="translate(146.289753, 55.123675)" fill-rule="nonzero">
                        <polygon id="矩形" fill="url(#linearGradient-5)" points="2.19941849e-13 27.9502166 15.4770318 0.424028269 14.1089988 33.7102473"></polygon>
                        <polygon id="矩形备份-12" fill="url(#linearGradient-6)" points="15.5761161 0 38.7985866 36.8904594 14.204947 33.8459413"></polygon>
                    </g>
                    <g id="编组-24" opacity="0.652297247" transform="translate(71.236749, 0.000000)">
                        <g id="编组-23" transform="translate(0.000000, 18.657455)">
                            <path d="M8.81978309,2.11992967 L22.5598541,2.11992967 L22.5598541,8.31307452 L22.5598541,13.904626 L23.8684323,22.5541022 L31.8021201,49.253858 C26.1589764,52.3188717 20.7459652,53.8513785 15.5630866,53.8513785 C10.3802079,53.8513785 5.19251241,52.3188717 0,49.253858 L7.18406037,22.5541022 L8.81978309,13.7512256 L8.81978309,8.15247225 L8.81978309,2.11992967 Z" id="矩形" fill="url(#linearGradient-7)" fill-rule="nonzero"></path>
                            <ellipse id="椭圆形" fill="#FFE5E1" fill-rule="nonzero" cx="15.9010601" cy="2.11992967" rx="6.99646643" ry="2.12014134"></ellipse>
                            <path d="M8.90459364,10.1764668 C8.90459364,11.3473885 11.9420964,12.2966081 15.6890459,12.2966081 C19.4359955,12.2966081 22.4734982,11.3473885 22.4734982,10.1764668" id="路径" stroke="#EBC3AC" stroke-width="0.5" opacity="0.421526228"></path>
                            <path d="M8.90459364,15.264806 C8.90459364,16.4357277 11.9420964,17.3849473 15.6890459,17.3849473 C19.4359955,17.3849473 22.4734982,16.4357277 22.4734982,15.264806" id="路径" stroke="#EBC3AC" stroke-width="0.5" opacity="0.421526228"></path>
                            <path d="M7.63250883,20.3531452 C7.63250883,21.5240669 11.1446214,22.4732866 15.4770318,22.4732866 C19.8094422,22.4732866 23.3215548,21.5240669 23.3215548,20.3531452" id="路径" stroke="#EBC3AC" stroke-width="0.5" opacity="0.421526228"></path>
                        </g>
                        <g id="编组-22" transform="translate(11.448763, 0.000000)" fill-rule="nonzero">
                            <path d="M5.61008523,20.7773852 C8.52548616,20.7773852 4.20199039,14.1337977 10.8888856,12.0735469 C15.6680044,10.6010873 19.7702366,16.0455976 21.0850164,12.661419 C25.4526912,1.41923866 32.2581977,4.11781372 30.1269534,1.94864568 C27.9957091,-0.220522367 12.7953705,-1.04599512 5.61008523,1.94864568 C1.31167334,3.74011242 0,8.80180147 0,10.6010873 C0,15.4080844 2.6946843,20.7773852 5.61008523,20.7773852 Z" id="椭圆形" fill="#FFE3E0"></path>
                            <path d="M5.54563842,20.7773852 C8.42754818,20.7773852 4.15371931,14.9777118 10.7637977,13.1791682 C15.4880156,11.8937505 19.7710439,16.1334652 21.0707199,13.1791682 C25.3882202,3.36504681 32.7774846,2.54416961 28.2806521,2.54416961 C26.8913419,2.54416961 23.0123917,8.86726062 19.6213485,10.4265512 C18.0991376,11.1265038 15.0718389,6.81043808 12.8712865,7.62037505 C11.7277859,8.04125275 7.28899522,8.76166531 5.54563842,11.6752448 C4.23921343,13.8586035 0,10.745737 0,11.8937505 C0,16.0901298 2.66372866,20.7773852 5.54563842,20.7773852 Z" id="椭圆形备份-7" fill="#F3DAD7"></path>
                        </g>
                    </g>
                    <g id="编组-13" opacity="0.733537946" transform="translate(4.240283, 67.208481)" fill-rule="nonzero">
                        <polygon id="矩形" fill="url(#linearGradient-8)" points="16.5371025 0.212014134 16.5371025 57.2438163 0 57.2438163"></polygon>
                        <polygon id="矩形备份-11" fill="url(#linearGradient-9)" points="16.6525006 0 53.4275618 46.8635044 24.1180989 56.3901494 16.5371025 57.2438163"></polygon>
                    </g>
                    <g id="编组-13备份" opacity="0.456287202" transform="translate(42.614841, 52.579505)" fill-rule="nonzero">
                        <path d="M0.0548924417,25.7119658 C0.565323799,18.9141995 4.76894773,10.3435442 12.6657642,0 L13.7809187,46.8551237 L9.20294447,46.1167588 C2.59381177,39.3113298 -0.455538916,32.5097322 0.0548924417,25.7119658 Z" id="矩形" fill="url(#linearGradient-10)"></path>
                        <polygon id="矩形备份-11" fill="url(#linearGradient-11)" points="12.7208481 0 34.3462898 19.2378311 30.5143717 35.8671428 12.7208481 47.2794155"></polygon>
                    </g>
                    <ellipse id="椭圆形" fill="url(#linearGradient-12)" fill-rule="nonzero" cx="99.8586572" cy="105.159011" rx="99.8586572" ry="36.4664311"></ellipse>
                    <ellipse id="椭圆形" fill="#F9D2D2" fill-rule="nonzero" opacity="0.5" cx="99.409894" cy="127.088339" rx="28.409894" ry="5.08833922"></ellipse>
                    <g id="编组" transform="translate(21.201413, 88.621908)" fill-rule="nonzero">
                        <polygon id="路径" fill="#FFB3B3" points="3.39222615 10.1766784 5.93639576 10.1766784 5.93639576 14.4169611 3.39222615 14.4169611"></polygon>
                        <polygon id="路径" fill="#FCA8A8" points="4.87641717 11.024735 9.75265018 11.024735 7.31462574 6.78435986 4.87641717 2.54416961 2.43820857 6.78435986 0 11.024735"></polygon>
                        <polygon id="路径" fill="#FFB9BA" points="4.66431095 8.90459364 8.90459364 8.90459364 6.7844523 5.30035336 4.66431095 1.69611307 2.54416961 5.30035336 0.424028269 8.90459364"></polygon>
                        <polygon id="路径" fill="#FDCACC" points="4.87632509 6.36042403 8.48056537 6.36042403 6.67844523 3.18012072 4.87632509 0 3.07420495 3.18012072 1.27208481 6.36042403"></polygon>
                    </g>
                    <g id="编组备份-5" opacity="0.576892671" transform="translate(164.310954, 85.441696)" fill-rule="nonzero">
                        <polygon id="路径" fill="#FFB3B3" points="3.39222615 10.1766784 5.93639576 10.1766784 5.93639576 14.4169611 3.39222615 14.4169611"></polygon>
                        <polygon id="路径" fill="#FCA8A8" points="4.87641717 11.024735 9.75265018 11.024735 7.31462574 6.78435986 4.87641717 2.54416961 2.43820857 6.78435986 0 11.024735"></polygon>
                        <polygon id="路径" fill="#FFB9BA" points="4.66431095 8.90459364 8.90459364 8.90459364 6.7844523 5.30035336 4.66431095 1.69611307 2.54416961 5.30035336 0.424028269 8.90459364"></polygon>
                        <polygon id="路径" fill="#FDCACC" points="4.87632509 6.36042403 8.48056537 6.36042403 6.67844523 3.18012072 4.87632509 0 3.07420495 3.18012072 1.27208481 6.36042403"></polygon>
                    </g>
                </g>
                <g id="购物车为空@2x" transform="translate(57.000000, 53.000000)">
                    <g id="购物车" transform="translate(0.040421, 0.640421)">
                        <g id="path-31" transform="translate(2.880000, 0.000000)">
                            <use fill="url(#linearGradient-13)" xlink:href="#path-15"></use>
                            <use fill="url(#linearGradient-14)" xlink:href="#path-15"></use>
                        </g>
                        <g id="椭圆形" transform="translate(63.360000, 48.000000)" fill="url(#linearGradient-16)" fill-rule="nonzero">
                            <g id="path-34-link">
                                <ellipse id="path-34" cx="6.912" cy="7.44757891" rx="6.18442105" ry="7.27578948"></ellipse>
                            </g>
                        </g>
                        <ellipse id="椭圆形" fill="url(#linearGradient-17)" fill-rule="nonzero" cx="68.0892632" cy="55.4475789" rx="6.18442105" ry="7.27578948"></ellipse>
                        <g id="椭圆形" transform="translate(65.280000, 51.840000)">
                            <g id="path-37-link" fill="#F0A556">
                                <ellipse id="path-37" cx="2.80926317" cy="3.97136842" rx="2.54652632" ry="3.27410527"></ellipse>
                            </g>
                            <g id="path-37-link" fill="#FF9F9F" fill-rule="nonzero">
                                <ellipse id="path-37" cx="2.80926317" cy="3.97136842" rx="2.54652632" ry="3.27410527"></ellipse>
                            </g>
                        </g>
                        <g id="编组-2" transform="translate(0.060632, 8.119364)" fill-rule="nonzero">
                            <polygon id="矩形" fill="url(#linearGradient-18)" points="32.7410527 1.58095759e-13 82.944 13.5220164 53.7799964 27.6835837 7.10542736e-14 10.949268"></polygon>
                            <polygon id="路径-6" fill="url(#linearGradient-19)" points="9.59232693e-14 10.949268 32.7410527 8.8817842e-14 32.7410527 21.1353732"></polygon>
                        </g>
                        <path d="M53.4648982,36.0254374 L83.4719896,21.2513684 C84.3319356,22.4142216 84.6304011,23.5766457 84.3673861,24.7386407 C84.1043712,25.9006357 82.5746993,34.3718068 79.7783706,50.1521538 L52.2753032,65.6336843 L53.4648982,36.0254374 Z" id="矩形-copy-8" fill="url(#linearGradient-20)" fill-rule="nonzero"></path>
                        <path d="M0.0606315744,19.0686316 C1.01820434,38.2321534 4.51434835,49.0068192 10.5490635,51.392629 C16.5837787,53.7784386 30.4925252,58.5254571 52.2753032,65.6336843 L53.9014737,35.6507951 L0.0606315744,19.0686316 Z" id="路径-5" fill="url(#linearGradient-21)" fill-rule="nonzero"></path>
                        <g id="椭圆形" opacity="0.600000024" transform="translate(34.560000, 54.720000)" fill="url(#linearGradient-16)">
                            <g id="path-87-link">
                                <ellipse id="path-87" cx="6.60884208" cy="7.2757895" rx="6.18442105" ry="7.27578948"></ellipse>
                            </g>
                        </g>
                        <ellipse id="椭圆形" fill="url(#linearGradient-17)" fill-rule="nonzero" cx="38.9861052" cy="61.9957895" rx="6.18442105" ry="7.27578948"></ellipse>
                        <g id="椭圆形" opacity="0.600000024" transform="translate(35.520000, 58.560000)">
                            <g id="path-89-link" fill="#F0A556">
                                <ellipse id="path-89" cx="3.46610525" cy="3.79957891" rx="2.54652632" ry="3.27410527"></ellipse>
                            </g>
                            <g id="path-89-link" fill="#FF9F9F" fill-rule="nonzero">
                                <ellipse id="path-89" cx="3.46610525" cy="3.79957891" rx="2.54652632" ry="3.27410527"></ellipse>
                            </g>
                        </g>
                        <g id="椭圆形" opacity="0.600000024" transform="translate(8.640000, 45.120000)" fill="url(#linearGradient-16)">
                            <g id="path-91-link">
                                <ellipse id="path-91" cx="7.06357891" cy="7.41726317" rx="6.18442105" ry="7.27578948"></ellipse>
                            </g>
                        </g>
                        <ellipse id="椭圆形" fill="url(#linearGradient-17)" fill-rule="nonzero" cx="13.5208421" cy="52.5372632" rx="6.18442105" ry="7.27578948"></ellipse>
                        <g id="椭圆形" opacity="0.600000024" transform="translate(10.560000, 48.960000)">
                            <g id="path-93-link" fill="#F0A556">
                                <ellipse id="path-93" cx="2.96084208" cy="3.94105267" rx="2.54652632" ry="3.27410527"></ellipse>
                            </g>
                            <g id="path-93-link" fill="#FF9F9F" fill-rule="nonzero">
                                <ellipse id="path-93" cx="2.96084208" cy="3.94105267" rx="2.54652632" ry="3.27410527"></ellipse>
                            </g>
                        </g>
                        <g id="分组" transform="translate(49.459579, 18.359579) rotate(-16.000000) translate(-49.459579, -18.359579) translate(38.959579, 9.359579)" fill-rule="nonzero">
                            <path d="M7.56734425,9.98456953 C7.82142058,10.5617598 8.49529531,10.8236954 9.07248558,10.5696191 C9.09366639,10.5602954 9.11455886,10.5503299 9.13513404,10.5397366 L16.236625,6.88345018 C17.179393,6.39805496 17.5501669,5.24029993 17.0647717,4.29753194 C16.957168,4.08853664 16.8121002,3.9010778 16.6367854,3.74448169 L15.6341275,2.84887895 C14.8731341,2.16913792 13.7133854,2.20336821 12.9938073,2.92680871 L7.93421067,8.01356314 C7.41803898,8.53250542 7.27245477,9.3146632 7.56734425,9.98456953 Z" id="路径-2" fill="url(#linearGradient-22)"></path>
                            <path d="M1.52344345,7.4573205 C2.13429346,7.4573205 2.69491351,7.11905563 2.97969663,6.57865179 L5.23442706,2.30008024 C5.6064637,1.59410433 5.33575243,0.720202498 4.62977652,0.348165864 C4.42210235,0.238725303 4.19089084,0.181531023 3.9561446,0.181531023 L3.22849247,0.181531023 C2.27219754,0.181531023 1.46168424,0.885270902 1.32749041,1.83210352 L0.669606986,6.47393754 C0.602773043,6.94549839 0.930869032,7.38195362 1.40242989,7.44878756 C1.44251742,7.45446913 1.4829553,7.4573205 1.52344345,7.4573205 Z" id="路径-2-copy" fill="url(#linearGradient-23)"></path>
                            <path d="M11.4439172,15.4510628 C11.4439172,16.0125191 11.857915,16.4880068 12.4140305,16.5652643 L17.4938674,17.2709725 C18.3884518,17.3952512 19.2144035,16.7707951 19.3386822,15.8762107 C19.3751518,15.6136948 19.3472703,15.3462483 19.2574385,15.0968994 L18.9442714,14.2276325 C18.6035486,13.2818781 17.5910089,12.7590463 16.6226308,13.0288375 L12.3874149,14.2087733 C11.8297211,14.3641474 11.4439172,14.8721298 11.4439172,15.4510628 Z" id="路径-2-copy-2" fill="url(#linearGradient-24)"></path>
                        </g>
                    </g>
                </g>
            </g>
        </g>
    </g>
</svg>