<?xml version="1.0" encoding="UTF-8"?>
<svg width="152px" height="133px" viewBox="0 0 152 133" version="1.1" xmlns="http://www.w3.org/2000/svg" xmlns:xlink="http://www.w3.org/1999/xlink">
    <title>Illustration</title>
    <defs>
        <path d="M27.8058335,0.0337613978 C-5.92775946,-1.57260017 -2.10040929,54.5899417 4.22240428,73.194772 C10.5452178,91.7996024 27.8058335,107.927714 44.9168974,114.960173 C62.0279613,121.992632 103.572554,123.723602 130.880701,107.927714 C158.188848,92.1318248 146.408863,58.5400176 127.400251,53.124664 C108.391639,47.7093105 111.068908,51.7050586 79.2094038,43.9409777 C47.3498993,36.1768967 61.5394265,1.64012297 27.8058335,0.0337613978 Z" id="path-1"></path>
        <path d="M64.2061101,7.76263756 L63.8549196,6.54709265 L62.4705619,6.38480722 C59.8413144,6.08110512 57.2636772,2.55354518 56.5716184,1.33824578 L55.9878213,0.327214893 L12.1454253,0.327214893 L11.5693097,1.34094645 C10.8770108,2.55354518 8.32025785,6.07889549 5.66892592,6.38480722 L4.28072741,6.54709265 L3.93073719,7.76263756 C-11.8901169,62.4594579 33.0219337,76.0408583 33.4842664,76.1636158 L34.0807861,76.3212365 L34.6799463,76.158951 C35.1345975,76.0312832 79.9095806,62.0445375 64.2061101,7.76263756" id="path-3"></path>
        <path d="M56.2247504,15.8513143 L55.9665089,14.9574853 L54.9485464,14.8381517 C53.0151768,14.6148298 51.1197579,12.0209024 50.610865,11.127254 L50.1815803,10.3838107 L17.9428669,10.3838107 L17.5192308,11.1292398 C17.0101613,12.0209024 15.1300992,14.613205 13.1804902,14.8381517 L12.1597035,14.9574853 L11.9023446,15.8513143 C0.268765483,56.0716324 33.29403,66.0584697 33.6339981,66.1487372 L34.072638,66.2646407 L34.5132196,66.145307 C34.8475392,66.0514288 67.7720136,55.7665282 56.2247504,15.8513143" id="path-5"></path>
    </defs>
    <g id="2-模版" stroke="none" stroke-width="1" fill="none" fill-rule="evenodd">
        <g id="2-7-11支付待确认页" transform="translate(-108.000000, -142.000000)">
            <g id="Illustration" transform="translate(108.000000, 142.000000)">
                <g id="BG" opacity="0.5" transform="translate(4.200000, 3.600000)">
                    <g id="Page-1">
                        <mask id="mask-2" fill="white">
                            <use xlink:href="#path-1"></use>
                        </mask>
                        <use id="Mask" fill="#FFEBEE" xlink:href="#path-1"></use>
                        <path d="M50.9406804,41.0198457 C17.6289022,39.4335705 21.4083941,94.8938395 27.6521453,113.26603 C33.8958966,131.63822 50.9406804,147.56466 67.8377826,154.509184 C84.7348847,161.453707 125.759992,163.163033 152.72667,147.56466 C179.693347,131.966288 168.060663,98.7945225 149.28974,93.4468841 C130.518817,88.0992457 133.162609,92.0450298 101.701485,84.3780332 C70.2403615,76.7110366 84.2524587,42.6061208 50.9406804,41.0198457 Z" id="Path-2-Copy" fill="#FFDDE2" opacity="0.300000012" mask="url(#mask-2)" transform="translate(96.045794, 100.296737) rotate(-60.000000) translate(-96.045794, -100.296737) "></path>
                        <path d="M136.525897,28.8 L136.525897,42.2945184 L132.681554,42.2945184 L132.681554,46.1954258 L126.084157,48.66807 L126.084157,82.3317629 L119.324999,82.3317629 L119.324999,54.6280771 L116.507792,54.6280771 L116.507792,53.071853 L114.056532,53.071853 L114.056532,51.7936247 L103.23091,51.7936247 L103.23091,53.071853 L100.77965,53.071853 L100.77965,54.6280771 L98.1549018,54.6280771 L98.1549018,61.0847515 L72.1374703,61.0847515 L72.1374703,82.3317629 L67.9337338,82.3317629 L67.9337338,54.6280771 L46.7636368,47.9782544 L46.7636368,82.3317629 L41.0429957,82.3317629 L41.0429957,62.1670722 L16.3182787,62.1670722 L16.3182787,82.3317629 L12.0824658,82.3317629 L12.0824658,56.6799337 L7.81423152,56.6799337 L7.81423152,55.6524533 L5.13395286,55.6524533 L5.13395286,42.890864 L4.71730422,42.890864 L4.71730422,55.6524533 L2.03702556,55.6524533 L2.03702556,56.6799337 L-1.92079167,56.6799337 L-1.92079167,82.3317629 L-7.0347399,82.3317629 L-7.0347399,61.8094028 L-14.5078576,61.8094028 L-14.5078576,59.8955093 L-25.2,59.8955093 L-25.2,82.3317629 L-25.2,83.285778 L-25.2,126.9618 L147.254254,126.9618 L147.254254,40.7348453 L141.505676,42.8887946 L141.505676,42.2945184 L136.94289,42.2945184 L136.94289,28.8 L136.525897,28.8 Z M127.680391,53.9168772 L131.733058,53.9168772 L131.733058,49.8642103 L127.680391,49.8642103 L127.680391,53.9168772 Z M132.681554,58.860441 L136.734221,58.860441 L136.734221,54.808119 L132.681554,54.808119 L132.681554,58.860441 Z M127.680391,58.860441 L131.733058,58.860441 L131.733058,54.808119 L127.680391,54.808119 L127.680391,58.860441 Z M114.430067,57.3193928 L118.224398,57.3193928 L118.224398,55.6524533 L114.430067,55.6524533 L114.430067,57.3193928 Z M7.16408028,59.2450132 L10.9584112,59.2450132 L10.9584112,57.5777288 L7.16408028,57.5777288 L7.16408028,59.2450132 Z M114.430067,60.0786554 L118.224398,60.0786554 L118.224398,58.4117159 L114.430067,58.4117159 L114.430067,60.0786554 Z M7.16408028,62.0042757 L10.9584112,62.0042757 L10.9584112,60.3369913 L7.16408028,60.3369913 L7.16408028,62.0042757 Z M114.430067,62.8379179 L118.224398,62.8379179 L118.224398,61.1709784 L114.430067,61.1709784 L114.430067,62.8379179 Z M7.16408028,64.7635383 L10.9584112,64.7635383 L10.9584112,63.0962539 L7.16408028,63.0962539 L7.16408028,64.7635383 Z M114.430067,65.5968356 L118.224398,65.5968356 L118.224398,63.9298961 L114.430067,63.9298961 L114.430067,65.5968356 Z M7.16408028,67.5231457 L10.9584112,67.5231457 L10.9584112,65.8558613 L7.16408028,65.8558613 L7.16408028,67.5231457 Z M114.430067,68.3560981 L118.224398,68.3560981 L118.224398,66.6891586 L114.430067,66.6891586 L114.430067,68.3560981 Z M7.16408028,70.2824083 L10.9584112,70.2824083 L10.9584112,68.6151239 L7.16408028,68.6151239 L7.16408028,70.2824083 Z M114.430067,71.1153607 L118.224398,71.1153607 L118.224398,69.4484212 L114.430067,69.4484212 L114.430067,71.1153607 Z M7.16408028,73.0416708 L10.9584112,73.0416708 L10.9584112,71.3743864 L7.16408028,71.3743864 L7.16408028,73.0416708 Z M114.430067,73.8746232 L118.224398,73.8746232 L118.224398,72.2076837 L114.430067,72.2076837 L114.430067,73.8746232 Z M7.16408028,75.8009334 L10.9584112,75.8009334 L10.9584112,74.1333041 L7.16408028,74.1333041 L7.16408028,75.8009334 Z M114.430067,76.6338858 L118.224398,76.6338858 L118.224398,74.9669463 L114.430067,74.9669463 L114.430067,76.6338858 Z M7.16408028,78.559851 L10.9584112,78.559851 L10.9584112,76.8925666 L7.16408028,76.8925666 L7.16408028,78.559851 Z M114.430067,79.3934932 L118.224398,79.3934932 L118.224398,77.7265538 L114.430067,77.7265538 L114.430067,79.3934932 Z M7.16408028,81.3191136 L10.9584112,81.3191136 L10.9584112,79.6518292 L7.16408028,79.6518292 L7.16408028,81.3191136 Z" fill="#FF3C59" opacity="0.112601902" mask="url(#mask-2)"></path>
                    </g>
                </g>
                <g id="Group-4" opacity="0.900000036" transform="translate(74.400000, 21.600000)" stroke="#FFEBEE" stroke-linecap="square" stroke-width="0.5">
                    <line x1="0.2" y1="1.8" x2="3.4" y2="1.8" id="Line-2"></line>
                    <line x1="1.8" y1="3.4" x2="1.8" y2="0.2" id="Line-2-Copy"></line>
                </g>
                <g id="Group-4-Copy" opacity="0.900000036" transform="translate(134.400000, 85.800000)" stroke="#FF8383" stroke-linecap="square" stroke-width="0.5">
                    <line x1="0.2" y1="1.8" x2="3.4" y2="1.8" id="Line-2"></line>
                    <line x1="1.8" y1="3.4" x2="1.8" y2="0.2" id="Line-2-Copy"></line>
                </g>
                <g id="Group-4-Copy-2" opacity="0.889999986" transform="translate(63.600000, 128.400000)" stroke="#FFEBEE" stroke-linecap="square" stroke-width="0.5">
                    <line x1="0.2" y1="1.8" x2="3.4" y2="1.8" id="Line-2"></line>
                    <line x1="1.8" y1="3.4" x2="1.8" y2="0.2" id="Line-2-Copy"></line>
                </g>
                <circle id="Oval" stroke="#FFEBEE" stroke-width="0.5" opacity="0.900000036" cx="136.2" cy="25.2" r="1.55"></circle>
                <circle id="Oval-Copy-6" stroke="#FFEBEE" stroke-width="0.5" opacity="0.900000036" cx="19.8" cy="42" r="1.55"></circle>
                <circle id="Oval-Copy-5" stroke="#FFEBEE" stroke-width="0.5" opacity="0.800000012" cx="1.8" cy="19.8" r="1.55"></circle>
                <circle id="Oval-Copy-4" stroke="#FFEBEE" stroke-width="0.5" opacity="0.400000006" cx="21.6" cy="111" r="1.55"></circle>
                <path d="M89.6139808,5.0100747 C87.0274124,10.4875137 93.8807263,9.52862252 96.3086285,15.4192706 C98.7365308,21.3099187 96.7650818,26.0069243 102.698974,27.8327373 C108.632866,29.6585503 108.613101,17.1067693 106.198449,11.2482691 C103.783797,5.38976894 92.2005493,-0.467364321 89.6139808,5.0100747 Z" id="Path-2-Copy-2" fill="#FFF5F9" transform="translate(98.379838, 15.419271) rotate(-47.000000) translate(-98.379838, -15.419271) "></path>
                <g id="credit-card" transform="translate(116.911309, 32.786138) rotate(-20.000000) translate(-116.911309, -32.786138) translate(104.411309, 25.286138)">
                    <rect id="Rectangle-2" fill-opacity="0.72" fill="#000000" opacity="0.0299999993" x="0" y="0" width="24.6" height="15" rx="1.8"></rect>
                    <rect id="Rectangle-2-Copy" fill="#FF4966" x="0" y="3.6" width="24.6" height="3"></rect>
                </g>
                <g id="Coin" transform="translate(21.600000, 76.800000)">
                    <circle id="Oval-2" fill-opacity="0.72" fill="#000000" opacity="0.0299999993" cx="10.8" cy="10.8" r="10.8"></circle>
                    <text id="$-copy" font-family="Helvetica" font-size="10.8" font-weight="normal" letter-spacing="0.269999993" fill="#FF4966">
                        <tspan x="7.66177735" y="14.8">$</tspan>
                    </text>
                </g>
                <g id="Fill-1-Copy" transform="translate(43.800000, 42.000000)">
                    <mask id="mask-4" fill="white">
                        <use xlink:href="#path-3"></use>
                    </mask>
                    <use id="Mask" stroke="#FF8383" stroke-width="6" fill="#FFF5F7" stroke-linecap="round" stroke-linejoin="round" xlink:href="#path-3"></use>
                    <mask id="mask-6" fill="white">
                        <use xlink:href="#path-5"></use>
                    </mask>
                    <use id="Mask-Copy" fill="#FFEBEE" xlink:href="#path-5"></use>
                    <g id="Group-6" mask="url(#mask-6)">
                        <g transform="translate(24.000000, 24.000000)">
                            <rect id="Rectangle" stroke="none" fill="#FF8383" fill-rule="evenodd" x="0" y="8.4" width="19.2" height="13.2" rx="1.8"></rect>
                            <rect id="Rectangle-3" stroke="#FF8383" stroke-width="1.8" fill="none" x="4.5" y="0.9" width="9.6" height="14.4" rx="4.8"></rect>
                        </g>
                    </g>
                </g>
                <g id="Profile" transform="translate(25.200000, 16.200000)">
                    <rect id="Rectangle-5" fill-opacity="0.72" fill="#000000" opacity="0.0299999993" x="0" y="0" width="23.4" height="24" rx="1.92"></rect>
                    <g id="Group-7" transform="translate(5.253061, 5.280000)" fill="#FF4966">
                        <ellipse id="Oval-3" cx="6.01415816" cy="3.28666667" rx="3.29808673" ry="3.28666667"></ellipse>
                        <path d="M12.2669315,12.564837 C12.2669315,12.564837 12.2669315,12.564837 12.2669315,12.564837 C11.6468974,9.79985782 9.16970022,7.73333333 6.20816327,7.73333333 C3.25113321,7.73333333 0.776969869,9.79357289 0.152238684,12.5522185 C0.152238684,12.5522185 0.152238684,12.5522185 0.152238684,12.5522185 C0.0155726485,13.1556991 0.394000632,13.7557065 0.997481242,13.8923725 C1.07868218,13.9107616 1.16167987,13.920042 1.24493699,13.92 L11.1820315,13.92 C11.7960855,13.9199639 12.2938746,13.4221748 12.2938746,12.8081209 C12.2938746,12.7262818 12.2848388,12.6446929 12.2669315,12.564837 Z" id="Oval-3-Copy"></path>
                    </g>
                </g>
            </g>
        </g>
    </g>
</svg>