<?xml version="1.0" encoding="UTF-8"?>
<svg width="64px" height="64px" viewBox="0 0 64 64" version="1.1" xmlns="http://www.w3.org/2000/svg" xmlns:xlink="http://www.w3.org/1999/xlink">
    <title>1丶图标/64/照片冲印</title>
    <defs>
        <linearGradient x1="9.038781%" y1="7.41363475%" x2="89.5486453%" y2="100%" id="linearGradient-1">
            <stop stop-color="#02D6FD" offset="0%"></stop>
            <stop stop-color="#0599FC" offset="100%"></stop>
        </linearGradient>
        <circle id="path-2" cx="32" cy="32" r="32"></circle>
        <filter x="-7.0%" y="-7.0%" width="114.1%" height="114.1%" filterUnits="objectBoundingBox" id="filter-4">
            <feGaussianBlur stdDeviation="4.5" in="SourceAlpha" result="shadowBlurInner1"></feGaussianBlur>
            <feOffset dx="0" dy="0" in="shadowBlurInner1" result="shadowOffsetInner1"></feOffset>
            <feComposite in="shadowOffsetInner1" in2="SourceAlpha" operator="arithmetic" k2="-1" k3="1" result="shadowInnerInner1"></feComposite>
            <feColorMatrix values="0 0 0 0 0   0 0 0 0 0   0 0 0 0 0  0 0 0 0.0257867133 0" type="matrix" in="shadowInnerInner1"></feColorMatrix>
        </filter>
        <linearGradient x1="50%" y1="0%" x2="50%" y2="100%" id="linearGradient-5">
            <stop stop-color="#000000" stop-opacity="0.5" offset="0%"></stop>
            <stop stop-color="#FFFFFF" stop-opacity="0.5" offset="100%"></stop>
        </linearGradient>
        <path d="M6.59471037,9.1 L35.4052896,9.1 C37.4745523,9.1 39.2354939,10.6071607 39.5549402,12.6516171 L41.2424402,23.4516171 C41.6005322,25.7434058 40.0329612,27.8915586 37.7411725,28.2496505 C37.5266711,28.2831664 37.3098937,28.3 37.0927896,28.3 L4.90721037,28.3 C2.58761442,28.3 0.707210369,26.4195959 0.707210369,24.1 C0.707210369,23.8828959 0.724043972,23.6661186 0.757559828,23.4516171 L2.44505983,12.6516171 C2.76450614,10.6071607 4.52544774,9.1 6.59471037,9.1 Z" id="path-6"></path>
        <linearGradient x1="50%" y1="0%" x2="50%" y2="100%" id="linearGradient-7">
            <stop stop-color="#FFFFFF" stop-opacity="0.5" offset="0%"></stop>
            <stop stop-color="#000000" stop-opacity="0.5" offset="100%"></stop>
        </linearGradient>
        <rect id="path-8" x="0" y="22.8" width="42" height="19" rx="3"></rect>
        <path d="M12.0763512,37.3 L29.9236488,37.3 C30.6593963,37.3 31.2865351,37.8336329 31.404307,38.5598933 L32.7178205,46.6598933 C32.8504278,47.4776382 32.295014,48.2480509 31.4772691,48.3806582 C31.3978814,48.3935319 31.317587,48.4 31.2371623,48.4 L10.7628377,48.4 C9.93441056,48.4 9.26283769,47.7284271 9.26283769,46.9 C9.26283769,46.8195753 9.2693058,46.7392809 9.28217947,46.6598933 L10.595693,38.5598933 C10.7134649,37.8336329 11.3406037,37.3 12.0763512,37.3 Z" id="path-9"></path>
        <filter x="-7.2%" y="-9.0%" width="114.5%" height="136.0%" filterUnits="objectBoundingBox" id="filter-10">
            <feOffset dx="0" dy="1" in="SourceAlpha" result="shadowOffsetOuter1"></feOffset>
            <feGaussianBlur stdDeviation="0.5" in="shadowOffsetOuter1" result="shadowBlurOuter1"></feGaussianBlur>
            <feColorMatrix values="0 0 0 0 0.0567745156   0 0 0 0 0.0702063325   0 0 0 0 0.954059103  0 0 0 0.324273383 0" type="matrix" in="shadowBlurOuter1"></feColorMatrix>
        </filter>
        <linearGradient x1="50%" y1="0%" x2="50%" y2="100%" id="linearGradient-11">
            <stop stop-color="#FFFFFF" stop-opacity="0.5" offset="0%"></stop>
            <stop stop-color="#000000" stop-opacity="0.5" offset="100%"></stop>
        </linearGradient>
        <path d="M2.5,0.5 L21.5,0.5 C22.6045695,0.5 23.5,1.3954305 23.5,2.5 L23.5,16.5 L23.5,16.5 L0.5,16.5 L0.5,2.5 C0.5,1.3954305 1.3954305,0.5 2.5,0.5 Z" id="path-12"></path>
        <filter x="-69.6%" y="-87.5%" width="239.1%" height="300.0%" filterUnits="objectBoundingBox" id="filter-14">
            <feOffset dx="0" dy="2" in="SourceAlpha" result="shadowOffsetOuter1"></feOffset>
            <feGaussianBlur stdDeviation="5" in="shadowOffsetOuter1" result="shadowBlurOuter1"></feGaussianBlur>
            <feColorMatrix values="0 0 0 0 0   0 0 0 0 0.788793103   0 0 0 0 1  0 0 0 0.156222684 0" type="matrix" in="shadowBlurOuter1"></feColorMatrix>
        </filter>
    </defs>
    <g id="1丶图标/64/照片冲印" stroke="none" stroke-width="1" fill="none" fill-rule="evenodd">
        <g id="冲印">
            <mask id="mask-3" fill="white">
                <use xlink:href="#path-2"></use>
            </mask>
            <g id="蒙版">
                <use fill="url(#linearGradient-1)" fill-rule="evenodd" xlink:href="#path-2"></use>
                <use fill="black" fill-opacity="1" filter="url(#filter-4)" xlink:href="#path-2"></use>
            </g>
            <g id="编组-8" mask="url(#mask-3)">
                <g transform="translate(11.000000, 18.000000)" id="编组-7">
                    <rect id="矩形" fill="#C2C2C2" x="0" y="24.7" width="42" height="19.2" rx="4.2"></rect>
                    <g id="矩形">
                        <use fill="#FFFFFF" xlink:href="#path-6"></use>
                        <use fill-opacity="0.33" fill="url(#linearGradient-5)" xlink:href="#path-6"></use>
                    </g>
                    <g id="矩形">
                        <use fill="#FFFFFF" xlink:href="#path-8"></use>
                        <use fill-opacity="0.33" fill="url(#linearGradient-7)" xlink:href="#path-8"></use>
                    </g>
                    <path d="M11.1,34.3 L30.9,34.3 C32.8882251,34.3 34.5,35.9117749 34.5,37.9 L34.5,41.8 L34.5,41.8 L7.5,41.8 L7.5,37.9 C7.5,35.9117749 9.1117749,34.3 11.1,34.3 Z" id="矩形" fill="#4E4E57"></path>
                    <g id="矩形">
                        <use fill="black" fill-opacity="1" filter="url(#filter-10)" xlink:href="#path-9"></use>
                        <use fill="#FF8928" fill-rule="evenodd" xlink:href="#path-9"></use>
                    </g>
                    <path d="M10.5,7 L31.5,7 C33.1568542,7 34.5,8.34314575 34.5,10 L34.5,16.6 L34.5,16.6 L7.5,16.6 L7.5,10 C7.5,8.34314575 8.84314575,7 10.5,7 Z" id="矩形" fill-opacity="0.33" fill="url(#linearGradient-11)"></path>
                    <g id="椭圆形-+-路径-5-蒙版" transform="translate(9.000000, 0.100000)">
                        <mask id="mask-13" fill="white">
                            <use xlink:href="#path-12"></use>
                        </mask>
                        <g id="蒙版">
                            <use fill="black" fill-opacity="1" filter="url(#filter-14)" xlink:href="#path-12"></use>
                            <use fill="#EBEBEB" fill-rule="evenodd" xlink:href="#path-12"></use>
                        </g>
                        <circle id="椭圆形" fill="#111112" opacity="0.0500651101" mask="url(#mask-13)" cx="6.5" cy="5.5" r="2"></circle>
                        <path d="M0.5,16.5441289 L4.60327838,11.5915795 C5.30798671,10.741015 6.56878444,10.6227752 7.41934893,11.3274836 C7.4757617,11.3742226 7.52956381,11.4240259 7.580512,11.4766682 L7.81916962,11.723262 C8.58734168,12.5169782 9.85350232,12.5376859 10.6472186,11.7695138 C10.6628869,11.7543497 10.6783063,11.7389304 10.6934704,11.723262 L14.3114817,7.98494022 C15.0796538,7.19122398 16.3458144,7.17051633 17.1395307,7.9386884 C17.155199,7.95385251 17.1706184,7.96927185 17.1857825,7.98494022 L23.5,14.5091256 L23.5,14.5091256 L23.5,20.5 L0.5,20.5 L0.5,16.5441289 Z" id="路径-5" fill="#111112" opacity="0.0500651101" mask="url(#mask-13)"></path>
                    </g>
                </g>
            </g>
        </g>
    </g>
</svg>