<?xml version="1.0" encoding="UTF-8"?>
<svg width="194px" height="142px" viewBox="0 0 194 142" version="1.1" xmlns="http://www.w3.org/2000/svg" xmlns:xlink="http://www.w3.org/1999/xlink">
    <title>编组 13</title>
    <defs>
        <path d="M191.797818,2.73076923 L191.797818,139.269231 L3.26260667,139.269231 L3.26260667,2.73076923 L191.797818,2.73076923 Z M186.333029,8.19230769 L8.7273954,8.19230769 L8.7273954,133.807692 L186.333029,133.807692 L186.333029,8.19230769 Z" id="path-1"></path>
        <filter x="-4.2%" y="-5.1%" width="108.5%" height="111.7%" filterUnits="objectBoundingBox" id="filter-2">
            <feOffset dx="0" dy="1" in="SourceAlpha" result="shadowOffsetOuter1"></feOffset>
            <feGaussianBlur stdDeviation="2.5" in="shadowOffsetOuter1" result="shadowBlurOuter1"></feGaussianBlur>
            <feColorMatrix values="0 0 0 0 0   0 0 0 0 0   0 0 0 0 0  0 0 0 0.142663489 0" type="matrix" in="shadowBlurOuter1"></feColorMatrix>
        </filter>
    </defs>
    <g id="首页改版" stroke="none" stroke-width="1" fill="none" fill-rule="evenodd">
        <g id="模版-冲印-1-横版" transform="translate(-90.000000, -160.000000)">
            <g id="编组-13" transform="translate(90.000000, 160.000000)">
                <polygon id="路径-10" fill="#9C9DA6" opacity="0.699999988" points="3.26260667 139.269231 0 5.46153846 3.26260667 5.46153846"></polygon>
                <polygon id="路径-10" fill="#9C9DA6" opacity="0.699999988" transform="translate(5.728503, 71.000070) rotate(182.000000) translate(-5.728503, -71.000070) " points="7.35702762 137.90405 4.09720072 4.09632853 7.35980503 4.09626084"></polygon>
                <polygon id="路径-10" fill="#9C9DA6" opacity="0.699999988" transform="translate(123.222853, 2.449564) rotate(90.000000) translate(-123.222853, -2.449564) " points="124.853186 69.3932258 121.59252 -64.4940981 124.853186 -64.4940981"></polygon>
                <polygon id="路径-10" fill="#9C9DA6" opacity="0.699999988" transform="translate(122.957746, 139.875525) scale(1, -1) rotate(90.000000) translate(-122.957746, -139.875525) " points="124.58808 206.819187 121.327413 72.9318634 124.58808 72.9318634"></polygon>
                <g id="形状结合">
                    <use fill="black" fill-opacity="1" filter="url(#filter-2)" xlink:href="#path-1"></use>
                    <use fill="#FFFFFF" fill-rule="evenodd" xlink:href="#path-1"></use>
                </g>
            </g>
        </g>
    </g>
</svg>