<?xml version="1.0" encoding="UTF-8"?>
<svg width="200px" height="142px" viewBox="0 0 200 142" version="1.1" xmlns="http://www.w3.org/2000/svg" xmlns:xlink="http://www.w3.org/1999/xlink">
    <title>缺省页-优惠券</title>
    <defs>
        <linearGradient x1="50%" y1="0%" x2="50%" y2="86.0706991%" id="linearGradient-1">
            <stop stop-color="#FBD3D2" offset="0%"></stop>
            <stop stop-color="#F8F4F3" offset="100%"></stop>
        </linearGradient>
        <linearGradient x1="50%" y1="0%" x2="50%" y2="43.9096274%" id="linearGradient-2">
            <stop stop-color="#F8E5E6" offset="0%"></stop>
            <stop stop-color="#F6F3F3" offset="100%"></stop>
        </linearGradient>
        <linearGradient x1="50%" y1="0%" x2="50%" y2="86.0706991%" id="linearGradient-3">
            <stop stop-color="#FBD9D8" offset="0%"></stop>
            <stop stop-color="#F8F4F3" offset="100%"></stop>
        </linearGradient>
        <linearGradient x1="50%" y1="0%" x2="50%" y2="43.9096274%" id="linearGradient-4">
            <stop stop-color="#F8E5E6" offset="0%"></stop>
            <stop stop-color="#FCECEC" offset="100%"></stop>
        </linearGradient>
        <linearGradient x1="50%" y1="0%" x2="50%" y2="86.0706991%" id="linearGradient-5">
            <stop stop-color="#FBD9D8" offset="0%"></stop>
            <stop stop-color="#F8F4F3" offset="100%"></stop>
        </linearGradient>
        <linearGradient x1="50%" y1="0%" x2="50%" y2="43.9096274%" id="linearGradient-6">
            <stop stop-color="#F8E5E6" offset="0%"></stop>
            <stop stop-color="#F6F3F3" offset="100%"></stop>
        </linearGradient>
        <linearGradient x1="50%" y1="0%" x2="50%" y2="100%" id="linearGradient-7">
            <stop stop-color="#FCD5D4" offset="0%"></stop>
            <stop stop-color="#FEE2E0" offset="100%"></stop>
        </linearGradient>
        <linearGradient x1="50%" y1="0%" x2="50%" y2="88.0272486%" id="linearGradient-8">
            <stop stop-color="#FCD0D0" offset="0%"></stop>
            <stop stop-color="#F3F4F8" stop-opacity="0" offset="100%"></stop>
        </linearGradient>
        <linearGradient x1="50%" y1="0%" x2="50%" y2="100%" id="linearGradient-9">
            <stop stop-color="#F8E8E8" offset="0%"></stop>
            <stop stop-color="#F4F5F6" stop-opacity="0" offset="100%"></stop>
        </linearGradient>
        <linearGradient x1="50%" y1="0%" x2="50%" y2="88.0272486%" id="linearGradient-10">
            <stop stop-color="#FCD1D0" offset="0%"></stop>
            <stop stop-color="#F8F4F3" offset="100%"></stop>
        </linearGradient>
        <linearGradient x1="50%" y1="0%" x2="50%" y2="100%" id="linearGradient-11">
            <stop stop-color="#F8E8E8" offset="0%"></stop>
            <stop stop-color="#F6F4F4" offset="100%"></stop>
        </linearGradient>
        <linearGradient x1="51.503123%" y1="16.1475966%" x2="51.503123%" y2="82.0641477%" id="linearGradient-12">
            <stop stop-color="#FCDBDB" offset="0%"></stop>
            <stop stop-color="#F6F3F4" stop-opacity="0" offset="100%"></stop>
        </linearGradient>
        <linearGradient x1="50%" y1="34.0430045%" x2="50%" y2="100%" id="linearGradient-13">
            <stop stop-color="#FFB3B3" offset="0%"></stop>
            <stop stop-color="#FEB9B9" offset="100%"></stop>
        </linearGradient>
        <linearGradient x1="50%" y1="34.0430045%" x2="50%" y2="100%" id="linearGradient-14">
            <stop stop-color="#FFB3B3" offset="0%"></stop>
            <stop stop-color="#FEB9B9" offset="100%"></stop>
        </linearGradient>
        <linearGradient x1="50%" y1="34.0430045%" x2="50%" y2="100%" id="linearGradient-15">
            <stop stop-color="#FFB3B3" offset="0%"></stop>
            <stop stop-color="#FEB9B9" offset="100%"></stop>
        </linearGradient>
        <linearGradient x1="67.1415399%" y1="44.9767639%" x2="52.7243737%" y2="56.275594%" id="linearGradient-16">
            <stop stop-color="#FF0000" stop-opacity="0" offset="0%"></stop>
            <stop stop-color="#FF0000" stop-opacity="0.423541302" offset="100%"></stop>
        </linearGradient>
        <linearGradient x1="67.1415399%" y1="44.676659%" x2="52.7243737%" y2="56.650519%" id="linearGradient-17">
            <stop stop-color="#FF0000" stop-opacity="0" offset="0%"></stop>
            <stop stop-color="#FF1818" stop-opacity="0.423541302" offset="100%"></stop>
        </linearGradient>
        <linearGradient x1="100%" y1="66.2454368%" x2="0%" y2="66.2454368%" id="linearGradient-18">
            <stop stop-color="#FFDDDD" offset="0%"></stop>
            <stop stop-color="#FFB6B6" offset="100%"></stop>
        </linearGradient>
        <linearGradient x1="100%" y1="66.2454368%" x2="28.0400052%" y2="66.2454368%" id="linearGradient-19">
            <stop stop-color="#FFA2A1" offset="0%"></stop>
            <stop stop-color="#FFBEBC" offset="100%"></stop>
        </linearGradient>
        <linearGradient x1="50%" y1="34.0430045%" x2="50%" y2="100%" id="linearGradient-20">
            <stop stop-color="#FDDBDB" offset="0%"></stop>
            <stop stop-color="#FEB9B9" offset="100%"></stop>
        </linearGradient>
    </defs>
    <g id="3-我的" stroke="none" stroke-width="1" fill="none" fill-rule="evenodd" opacity="0.600000024">
        <g id="3-5-0优惠券-暂无" transform="translate(-88.000000, -301.000000)">
            <g id="缺省页-优惠券" transform="translate(88.000000, 301.000000)">
                <g id="编组-4">
                    <g id="编组-14" opacity="0.352608817" transform="translate(26.077739, 27.349823)" fill-rule="nonzero">
                        <polygon id="矩形" fill="url(#linearGradient-1)" points="-4.66999819e-14 41.173126 13.820646 1.92825732e-13 13.820646 41.173126"></polygon>
                        <polygon id="矩形备份-12" fill="url(#linearGradient-2)" points="13.3966177 0.042383976 32.2261484 26.9257951 29.5926218 33.9483131 13.3966177 41.173126"></polygon>
                    </g>
                    <g id="编组-14备份-5" transform="translate(108.551237, 26.289753)" fill-rule="nonzero">
                        <polygon id="矩形" fill="url(#linearGradient-3)" points="-8.30943933e-14 27.9502166 21.3965682 0.424028269 19.5053004 33.7102473"></polygon>
                        <polygon id="矩形备份-12" fill="url(#linearGradient-4)" points="21.3965682 0 53.4275618 36.8904594 19.5053004 33.8459413"></polygon>
                    </g>
                    <g id="编组-14备份-9" transform="translate(146.289753, 55.123675)" fill-rule="nonzero">
                        <polygon id="矩形" fill="url(#linearGradient-5)" points="2.19941849e-13 27.9502166 15.4770318 0.424028269 14.1089988 33.7102473"></polygon>
                        <polygon id="矩形备份-12" fill="url(#linearGradient-6)" points="15.5761161 0 38.7985866 36.8904594 14.204947 33.8459413"></polygon>
                    </g>
                    <g id="编组-24" opacity="0.652297247" transform="translate(71.236749, 0.000000)">
                        <g id="编组-23" transform="translate(0.000000, 18.657455)">
                            <path d="M8.81978309,2.11992967 L22.5598541,2.11992967 L22.5598541,8.31307452 L22.5598541,13.904626 L23.8684323,22.5541022 L31.8021201,49.253858 C26.1589764,52.3188717 20.7459652,53.8513785 15.5630866,53.8513785 C10.3802079,53.8513785 5.19251241,52.3188717 0,49.253858 L7.18406037,22.5541022 L8.81978309,13.7512256 L8.81978309,8.15247225 L8.81978309,2.11992967 Z" id="矩形" fill="url(#linearGradient-7)" fill-rule="nonzero"></path>
                            <ellipse id="椭圆形" fill="#FFE5E1" fill-rule="nonzero" cx="15.9010601" cy="2.11992967" rx="6.99646643" ry="2.12014134"></ellipse>
                            <path d="M8.90459364,10.1764668 C8.90459364,11.3473885 11.9420964,12.2966081 15.6890459,12.2966081 C19.4359955,12.2966081 22.4734982,11.3473885 22.4734982,10.1764668" id="路径" stroke="#EBC3AC" stroke-width="0.5" opacity="0.421526228"></path>
                            <path d="M8.90459364,15.264806 C8.90459364,16.4357277 11.9420964,17.3849473 15.6890459,17.3849473 C19.4359955,17.3849473 22.4734982,16.4357277 22.4734982,15.264806" id="路径" stroke="#EBC3AC" stroke-width="0.5" opacity="0.421526228"></path>
                            <path d="M7.63250883,20.3531452 C7.63250883,21.5240669 11.1446214,22.4732866 15.4770318,22.4732866 C19.8094422,22.4732866 23.3215548,21.5240669 23.3215548,20.3531452" id="路径" stroke="#EBC3AC" stroke-width="0.5" opacity="0.421526228"></path>
                        </g>
                        <g id="编组-22" transform="translate(11.448763, 0.000000)" fill-rule="nonzero">
                            <path d="M5.61008523,20.7773852 C8.52548616,20.7773852 4.20199039,14.1337977 10.8888856,12.0735469 C15.6680044,10.6010873 19.7702366,16.0455976 21.0850164,12.661419 C25.4526912,1.41923866 32.2581977,4.11781372 30.1269534,1.94864568 C27.9957091,-0.220522367 12.7953705,-1.04599512 5.61008523,1.94864568 C1.31167334,3.74011242 0,8.80180147 0,10.6010873 C0,15.4080844 2.6946843,20.7773852 5.61008523,20.7773852 Z" id="椭圆形" fill="#FFE3E0"></path>
                            <path d="M5.54563842,20.7773852 C8.42754818,20.7773852 4.15371931,14.9777118 10.7637977,13.1791682 C15.4880156,11.8937505 19.7710439,16.1334652 21.0707199,13.1791682 C25.3882202,3.36504681 32.7774846,2.54416961 28.2806521,2.54416961 C26.8913419,2.54416961 23.0123917,8.86726062 19.6213485,10.4265512 C18.0991376,11.1265038 15.0718389,6.81043808 12.8712865,7.62037505 C11.7277859,8.04125275 7.28899522,8.76166531 5.54563842,11.6752448 C4.23921343,13.8586035 0,10.745737 0,11.8937505 C0,16.0901298 2.66372866,20.7773852 5.54563842,20.7773852 Z" id="椭圆形备份-7" fill="#F3DAD7"></path>
                        </g>
                    </g>
                    <g id="编组-13" opacity="0.733537946" transform="translate(4.240283, 67.208481)" fill-rule="nonzero">
                        <polygon id="矩形" fill="url(#linearGradient-8)" points="16.5371025 0.212014134 16.5371025 57.2438163 0 57.2438163"></polygon>
                        <polygon id="矩形备份-11" fill="url(#linearGradient-9)" points="16.6525006 0 53.4275618 46.8635044 24.1180989 56.3901494 16.5371025 57.2438163"></polygon>
                    </g>
                    <g id="编组-13备份" opacity="0.456287202" transform="translate(42.614841, 52.579505)" fill-rule="nonzero">
                        <path d="M0.0548924417,25.7119658 C0.565323799,18.9141995 4.76894773,10.3435442 12.6657642,0 L13.7809187,46.8551237 L9.20294447,46.1167588 C2.59381177,39.3113298 -0.455538916,32.5097322 0.0548924417,25.7119658 Z" id="矩形" fill="url(#linearGradient-10)"></path>
                        <polygon id="矩形备份-11" fill="url(#linearGradient-11)" points="12.7208481 0 34.3462898 19.2378311 30.5143717 35.8671428 12.7208481 47.2794155"></polygon>
                    </g>
                    <ellipse id="椭圆形" fill="url(#linearGradient-12)" fill-rule="nonzero" cx="99.8586572" cy="105.159011" rx="99.8586572" ry="36.4664311"></ellipse>
                    <g id="编组" transform="translate(21.201413, 88.621908)" fill-rule="nonzero">
                        <polygon id="路径" fill="#FFB3B3" points="3.39222615 10.1766784 5.93639576 10.1766784 5.93639576 14.4169611 3.39222615 14.4169611"></polygon>
                        <polygon id="路径" fill="#FCA8A8" points="4.87641717 11.024735 9.75265018 11.024735 7.31462574 6.78435986 4.87641717 2.54416961 2.43820857 6.78435986 0 11.024735"></polygon>
                        <polygon id="路径" fill="#FFB9BA" points="4.66431095 8.90459364 8.90459364 8.90459364 6.7844523 5.30035336 4.66431095 1.69611307 2.54416961 5.30035336 0.424028269 8.90459364"></polygon>
                        <polygon id="路径" fill="#FDCACC" points="4.87632509 6.36042403 8.48056537 6.36042403 6.67844523 3.18012072 4.87632509 0 3.07420495 3.18012072 1.27208481 6.36042403"></polygon>
                    </g>
                    <g id="编组备份-5" opacity="0.576892671" transform="translate(164.310954, 85.441696)" fill-rule="nonzero">
                        <polygon id="路径" fill="#FFB3B3" points="3.39222615 10.1766784 5.93639576 10.1766784 5.93639576 14.4169611 3.39222615 14.4169611"></polygon>
                        <polygon id="路径" fill="#FCA8A8" points="4.87641717 11.024735 9.75265018 11.024735 7.31462574 6.78435986 4.87641717 2.54416961 2.43820857 6.78435986 0 11.024735"></polygon>
                        <polygon id="路径" fill="#FFB9BA" points="4.66431095 8.90459364 8.90459364 8.90459364 6.7844523 5.30035336 4.66431095 1.69611307 2.54416961 5.30035336 0.424028269 8.90459364"></polygon>
                        <polygon id="路径" fill="#FDCACC" points="4.87632509 6.36042403 8.48056537 6.36042403 6.67844523 3.18012072 4.87632509 0 3.07420495 3.18012072 1.27208481 6.36042403"></polygon>
                    </g>
                </g>
                <g id="暂无优惠券@2x" transform="translate(58.000000, 44.000000)">
                    <g id="分组" transform="translate(69.542422, 11.523408) rotate(-9.000000) translate(-69.542422, -11.523408) translate(59.042422, 2.023408)" fill-rule="nonzero">
                        <path d="M7.32874994,10.2093052 C7.59335594,10.810416 8.29515801,11.0832069 8.89626874,10.8186009 C8.91832734,10.8088909 8.94008565,10.7985124 8.96151352,10.78748 L16.3567557,6.97995242 C17.3388057,6.4743324 17.7250285,5.26833758 17.2194085,4.28628759 C17.1073213,4.06858414 16.956209,3.87331452 16.7735895,3.71019356 L15.730148,2.77816186 C14.9374466,2.07009829 13.729375,2.10575485 12.9798145,2.8593387 L7.71082037,8.15661458 C7.17325702,8.69706334 7.02163936,9.51163603 7.32874994,10.2093052 Z" id="路径-2" fill="url(#linearGradient-13)"></path>
                        <path d="M1.03437211,7.57731959 C1.67053754,7.57731959 2.25439133,7.22503603 2.55097671,6.66223627 L4.8991498,2.20634812 C5.28660473,1.4711145 5.00467439,0.560995606 4.26944076,0.173540679 C4.05315997,0.0595645794 3.81236637,-1.13731747e-13 3.56789156,-1.13686838e-13 L2.81045634,-1.13686838e-13 C1.81431579,-1.13059761e-13 0.970031106,0.733062373 0.830245866,1.71934635 L0.145150153,6.55318235 C0.0755464146,7.04428607 0.417239667,7.49882928 0.908343393,7.56843302 C0.950092265,7.57435005 0.992206014,7.57731959 1.03437211,7.57731959 Z" id="路径-2-copy" fill="url(#linearGradient-14)"></path>
                        <path d="M11.3659794,15.9023461 C11.3659794,16.4870708 11.7971345,16.9822641 12.3762971,17.0627234 L17.6666574,17.7976782 C18.598316,17.9271074 19.4584975,17.276772 19.5879267,16.3451134 C19.6259077,16.0717181 19.5968708,15.7931878 19.503316,15.5335051 L19.1773055,14.6285884 C18.8223859,13.6434276 17.7676571,13.0988112 16.7589299,13.3798437 L12.3485785,14.6085724 C11.7677722,14.7703857 11.3659794,15.2994203 11.3659794,15.9023461 Z" id="路径-2-copy-2" fill="url(#linearGradient-15)"></path>
                    </g>
                    <path d="M101.285767,75.6318884 C99.5934497,69.7328976 46.6197711,59.5418225 51.5680939,63.10709 C56.5164166,66.6723576 36.8785502,56.6108252 36.8785502,63.10709 L53.6085543,81.4024958 C56.1200452,83.0647127 57.7838717,83.8190196 58.6000338,83.6654165 C68.0857522,81.880188 82.3143298,79.2023453 101.285767,75.6318884 Z" id="阴影" fill="url(#linearGradient-16)" fill-rule="nonzero" opacity="0.300000012" transform="translate(69.082158, 72.275923) rotate(2.000000) translate(-69.082158, -72.275923) "></path>
                    <path d="M66.4072163,69.7649486 C64.7148999,63.8659579 11.741221,53.6748827 16.6895437,57.2401503 C21.6378665,60.8054179 2,50.7438855 2,57.2401503 L20.0487543,78.4896906 L66.4072163,69.7649486 Z" id="阴影-copy" fill="url(#linearGradient-17)" fill-rule="nonzero" opacity="0.400000006" transform="translate(34.203608, 66.744845) rotate(2.000000) translate(-34.203608, -66.744845) "></path>
                    <g id="优惠券" transform="translate(0.097938, 7.402062)">
                        <path d="M61.7176762,10.264395 C56.712521,21.9995306 54.0682729,31.7159426 53.7849319,39.4136309 C53.5015909,47.1113192 54.9769767,59.2349919 58.2110893,75.7846488 L64.3631594,72.5891877 C62.214524,57.178101 61.3326963,46.1195821 61.7176762,39.4136309 C62.1026561,32.7076798 63.7445972,24.8390075 66.6434995,15.8076143 L61.7176762,10.264395 Z" id="路径-11" fill="url(#linearGradient-18)" fill-rule="nonzero"></path>
                        <polygon id="路径-11-copy" fill="url(#linearGradient-19)" fill-rule="nonzero" points="17.7560829 50.7865491 19.7853306 70.605619 26.8530823 67.6289164 27.9923519 48.9586102"></polygon>
                        <path d="M8.96103431,7.10542736e-15 C5.39029818,6.84292999 2.76528001,16.6546877 1.0859798,29.435273 C-0.5933204,42.2158583 -0.325036613,54.7905533 1.89083117,67.1593579 L19.7853306,70.605619 C21.3700808,66.0678737 24.2113664,64.1162803 28.3091874,64.7508389 C32.4070085,65.3853974 34.455919,68.1884442 34.455919,73.1599793 L58.2110893,75.7846488 C56.2723488,58.8613232 55.4848687,46.6070055 55.8486488,39.0216959 C56.212429,31.4363862 58.1681925,21.8506193 61.7159391,10.264395 L42.0364586,6.17135442 C39.2685333,10.1722425 35.9897566,11.5365894 32.2001287,10.264395 C28.4105008,8.99220057 26.6031471,6.44855885 26.7780678,2.63346983 L8.96103431,7.10542736e-15 Z" id="路径-10" fill="url(#linearGradient-20)" fill-rule="nonzero"></path>
                        <g id="星形" transform="translate(28.008630, 33.499412) rotate(8.000000) translate(-28.008630, -33.499412) translate(12.008630, 18.999412)" fill="#FDA7AE">
                            <g id="path-33-link" transform="translate(-0.000000, -0.000000)">
                                <path d="M15.0112558,23.4679887 L10.4734667,25.3809996 C9.45564602,25.8100857 8.28269635,25.332822 7.85361029,24.3150013 C7.7077592,23.9690328 7.66223838,23.5889958 7.72225565,23.2183684 L8.41783581,18.9229204 C8.53264845,18.2139126 8.25846191,17.4977833 7.69949931,17.0467458 L4.35721467,14.3497934 C3.49759966,13.6561538 3.36304997,12.3969922 4.05668952,11.5373772 C4.36038145,11.1610173 4.79015684,10.9074433 5.26644124,10.8236055 L10.3089267,9.93600338 C10.926648,9.82726916 11.4575824,9.43504662 11.7430519,8.87655763 L14.2329154,4.00541869 C14.7356445,3.02188563 15.940498,2.63211698 16.9240311,3.13484604 C17.285092,3.31940091 17.5815259,3.60934632 17.7740251,3.96623499 L20.1534548,8.37763665 C20.4662465,8.95754437 21.0445914,9.3461873 21.6996945,9.41669671 L26.8609363,9.97220645 C27.9591629,10.0904097 28.7536288,11.076521 28.6354256,12.1747476 C28.5856527,12.637188 28.3762619,13.0678222 28.0432809,13.3925559 L24.0356158,17.3009592 C23.5841012,17.7412907 23.3667348,18.3687976 23.4491265,18.9940725 L24.1497008,24.3107647 C24.2940013,25.4058679 23.5232233,26.4106032 22.42812,26.5549036 C21.96873,26.6154369 21.5025744,26.5145817 21.1092911,26.269568 L16.8457346,23.6133919 C16.2941769,23.269774 15.6100577,23.2155498 15.0112558,23.4679887 Z" id="path-33"></path>
                            </g>
                        </g>
                    </g>
                </g>
            </g>
        </g>
    </g>
</svg>