<?xml version="1.0" encoding="UTF-8"?>
<svg width="48px" height="37px" viewBox="0 0 48 37" version="1.1" xmlns="http://www.w3.org/2000/svg" xmlns:xlink="http://www.w3.org/1999/xlink">
    <title>优惠券已失效</title>
    <g id="3-我的" stroke="none" stroke-width="1" fill="none" fill-rule="evenodd">
        <g id="3-5-1优惠券" transform="translate(-299.000000, -594.000000)" fill="#D7D7DA" fill-rule="nonzero">
            <g id="优惠券已失效" transform="translate(299.000000, 594.000000)">
                <path d="M24.03735,7.0956 C22.49715,7.0956 21.02655,7.4178 19.68855,7.9992 L18.30435,7.6254 C20.0584617,6.65256397 22.0315294,6.14272576 24.03735,6.14399762 C28.33935,6.14399762 32.10735,8.454 34.17615,11.904 L32.78655,11.5302 C30.80295,8.8374 27.62295,7.0956 24.03735,7.0956 L24.03735,7.0956 Z M31.19415,6.4344 L30.20835,6.4902 L30.58635,5.6232 L30.20835,4.7556 L31.19415,4.8306 L31.94595,4.224 L32.17875,5.1384 L33.02415,5.6322 L32.17815,6.1266 L31.94535,7.0398 L31.19355,6.4338 L31.19415,6.4344 Z M17.87295,4.5198 L18.84075,4.3422 L18.52275,5.2914 L18.94395,6.1596 L17.97135,6.1878 L17.26935,6.912 L16.98435,5.982 L16.12815,5.5602 L16.92315,4.9506 L17.09595,3.9678 L17.87295,4.5198 L17.87295,4.5198 Z M25.26795,3.06 L26.23995,3.1836 L25.65795,3.9786 L25.80375,4.9206 L24.86415,4.6554 L23.98155,5.1192 L23.98575,4.1586 L23.29575,3.501 L24.23475,3.174 L24.69075,2.3034 L25.26795,3.06 L25.26795,3.06 Z M35.91435,9.156 L36.89955,9.0162 L36.63015,9.9522 L37.12035,10.836 L36.11655,10.8306 L35.43495,11.5206 L35.08395,10.5804 L34.17615,10.1262 L34.95915,9.5466 L35.07915,8.5764 L35.91435,9.156 L35.91435,9.156 Z M46.59195,16.296 C47.07915,16.4268 47.49495,16.746 47.74695,17.1846 C47.99895,17.6226 48.06615,18.144 47.93415,18.6318 L44.98635,29.6904 C44.8572782,30.1776839 44.5397606,30.5936554 44.1037612,30.8466566 C43.6677618,31.0996578 43.1490599,31.1689267 42.66195,31.0392 L1.40595,19.9284 C0.39615,19.6578 -0.20505,18.6084 0.06435,17.592 L3.01275,6.534 C3.14169896,6.04673881 3.45907048,5.63073044 3.89494651,5.37762298 C4.33082254,5.12451552 4.84944156,5.05507521 5.33655,5.1846 L46.59255,16.2954 L46.59195,16.296 Z M46.79955,18.7818 C47.00175,18.0144 46.55415,17.2326 45.79935,17.034 L5.51115,6.192 C4.75235957,5.9913051 3.97413897,6.44198094 3.77055,7.2 L1.07235,17.3136 C0.871052322,18.0730776 1.31920868,18.8529339 2.07675,19.0614 L42.36015,29.9046 C43.1194393,30.1048205 43.8976754,29.6533309 44.10075,28.8948 L46.79955,18.7818 L46.79955,18.7818 Z M24.01935,0.9498 C19.29615,0.9498 15.02175,2.8716 11.92935,5.9754 L10.87995,5.6952 C14.17575,2.1924 18.84195,0 24.02475,0 C32.56395,0 39.72255,5.9556 41.59995,13.9518 L40.54575,13.6722 C38.59215,6.3444 31.93515,0.948 24.01935,0.948 L24.01935,0.9492 L24.01935,0.9498 Z M28.30635,28.2198 L29.69595,28.599 C27.9416441,29.5718246 25.9683345,30.0814655 23.96235,30.0798041 C19.66095,30.0798041 15.89235,27.7698 13.82415,24.3198 L15.21375,24.6942 C17.19735,27.3876 20.37735,29.1294 23.96235,29.1294 C25.457646,29.1302173 26.9368382,28.8206902 28.30635,28.2204 L28.30635,28.2198 Z M18.21255,30.1746 L19.20015,30.1134 L18.81915,30.9804 L19.20015,31.848 L18.21255,31.7778 L17.46075,32.3838 L17.22555,31.47 L16.38435,30.9756 L17.22555,30.4818 L17.46075,29.568 L18.21255,30.174 L18.21255,30.1746 Z M24.01095,33.0336 L23.04015,32.916 L23.62695,32.1192 L23.48055,31.1754 L24.41715,31.4412 L25.29795,30.9768 L25.29255,31.9344 L25.98435,32.598 L25.04235,32.925 L24.58755,33.7926 L24.01095,33.0342 L24.01095,33.0336 Z M12.05955,27.1416 L11.09295,27.2136 L11.42295,26.304 L11.00835,25.3998 L11.98455,25.4718 L12.69735,24.8322 L12.97155,25.7838 L13.82415,26.2992 L13.01775,26.8182 L12.83355,27.7758 L12.06015,27.1416 L12.05955,27.1416 Z M23.98035,35.274 C28.519549,35.2794105 32.872541,33.4699484 36.07035,30.2484 L37.12035,30.528 C33.82395,34.0308 29.15775,36.2232 23.97555,36.2232 C15.43575,36.2232 8.27775,30.2676 6.40035,22.2714 L7.45455,22.551 C9.40815,29.88 16.06455,35.2752 23.97975,35.2752 L23.98035,35.2746 L23.98035,35.274 Z M30.89655,31.8294 L29.93775,32.013 L30.24915,31.059 L29.82435,30.1914 L30.79755,30.1626 L31.49175,29.4396 L31.78035,30.3744 L32.64015,30.7986 L31.84635,31.4052 L31.67655,32.3832 L30.89655,31.8294 L30.89655,31.8294 Z M16.65615,17.7942 L17.64615,18.4398 C17.50575,18.8382 17.37135,19.1712 17.24415,19.4388 C16.70895,20.559 16.35975,20.7786 15.04155,20.481 C13.51707,20.1508711 12.0094988,19.7469967 10.52415,19.2708 C9.22395,18.8664 8.90955,18.4128 9.27555,17.0466 L10.59195,12.1326 L11.68695,12.471 L11.35695,13.7022 L16.39575,15.0522 L16.98555,12.8508 L10.60095,11.1408 L10.89135,10.0554 L18.36135,12.057 L17.20095,16.386 L11.07735,14.7456 L10.45695,17.0616 C10.24155,17.8644 10.35135,18.0396 11.16675,18.2916 C12.4259442,18.7071594 13.7078284,19.0505177 15.00615,19.32 C15.86475,19.494 15.99435,19.428 16.29615,18.7602 C16.41375,18.4902 16.55895,18.1146 16.65615,17.7942 L16.65615,17.7942 Z M28.06995,19.8462 L24.55395,18.9042 C24.76575,20.493 25.74495,21.7614 27.57555,23.0682 L26.67975,23.991 C25.06395,22.719 24.01755,21.366 23.61795,19.7268 C22.62615,20.7582 21.04335,21.5748 18.72975,21.9054 L18.38595,20.6844 C20.77095,20.3394 22.34835,19.6662 23.14575,18.5268 L19.50495,17.5512 L19.78455,16.5084 L23.60295,17.5314 L24.06975,15.912 L22.06695,15.3756 C21.68475,15.8436 21.31095,16.2798 20.90895,16.653 L20.11215,15.8694 C20.99535,15.0774 21.85575,13.9104 22.45455,12.8856 L23.40735,13.4202 C23.19135,13.7652 22.98975,14.1024 22.76655,14.4342 L24.36255,14.8614 C24.53055,14.2356 24.70035,13.6434 24.82035,13.1952 L25.91535,13.533 L25.45815,15.1548 L28.58775,15.9936 L28.30575,17.0472 L25.16535,16.206 L24.70875,17.8278 L28.34955,18.8034 L28.06995,19.8462 L28.06995,19.8462 Z M36.38715,23.439 C36.74715,24.3072 37.28355,25.1436 37.98075,26.0466 L37.07175,26.8086 C36.39975,25.9362 35.87235,25.068 35.49675,24.2178 C34.76175,24.7476 33.84975,25.23 32.76375,25.6548 L32.31255,24.5832 C33.50655,24.1764 34.39635,23.733 35.11875,23.166 C34.8645862,22.2823833 34.7595457,21.3625693 34.80795,20.4444 C34.74435,20.5164 34.66995,20.586 34.59495,20.6556 L34.19535,19.6428 C35.02875,18.8712 36.07455,17.4288 36.59835,16.3512 L37.57635,16.7472 C37.3208911,17.2221173 37.0440061,17.6851939 36.74655,18.135 L39.60495,18.9006 L39.32535,19.944 L38.61555,19.7538 C37.97055,21.3696 37.29075,22.5294 36.38715,23.439 L36.38715,23.439 Z M35.20815,17.5326 L34.92855,18.576 L30.38055,17.3574 L30.65955,16.3134 L32.49555,16.8054 C32.52435,16.3662 32.48655,15.7974 32.47875,15.4932 L33.49275,15.6312 C33.51915,15.951 33.54675,16.5954 33.53895,17.0856 L35.20815,17.5326 L35.20815,17.5326 Z M31.66215,17.7456 L32.36895,18.4488 C31.6499533,19.2444848 30.8374675,19.9503985 29.94915,20.5512 L29.45475,19.7256 C30.16995,19.2684 31.02735,18.4476 31.66275,17.7456 L31.66215,17.7456 Z M32.97435,23.8662 L32.08755,24.4224 C31.92375,24.0324 31.71135,23.5728 31.47915,23.0628 C30.69075,23.6682 29.79195,24.1428 28.73715,24.576 L28.34295,23.5422 C29.42895,23.1624 30.30855,22.716 31.05195,22.11 C30.77655,21.5106 30.49875,20.922 30.26835,20.4468 L31.11975,19.9812 C31.35075,20.4126 31.58355,20.8776 31.83975,21.3822 C32.1757197,21.0023397 32.4763636,20.5926445 32.73795,20.1582 L33.39795,20.6142 C33.15375,19.9002 32.79675,19.0218 32.58195,18.573 L33.42015,18.2388 C33.73995,18.8388 34.26135,20.2308 34.51695,20.9478 L33.63495,21.36 L33.48555,20.8728 C33.1422376,21.4031354 32.7440428,21.8958512 32.29755,22.3428 C32.55315,22.8924 32.79315,23.415 32.97435,23.8668 L32.97435,23.8662 Z M36.06015,19.0692 L35.85915,19.317 C35.74395,20.415 35.80035,21.4146 36.02355,22.335 C36.68595,21.5736 37.15155,20.67 37.63515,19.491 L36.06015,19.0692 Z" id="形状"></path>
            </g>
        </g>
    </g>
</svg>