<?xml version="1.0" encoding="UTF-8"?>
<svg width="24px" height="24px" viewBox="0 0 24 24" version="1.1" xmlns="http://www.w3.org/2000/svg" xmlns:xlink="http://www.w3.org/1999/xlink">
    <title>1丶图标/24/编辑器/透明度</title>
    <defs>
        <linearGradient x1="100%" y1="50%" x2="0%" y2="50%" id="linearGradient-1">
            <stop stop-color="#000000" stop-opacity="0.13786604" offset="0%"></stop>
            <stop stop-color="#000000" offset="100%"></stop>
        </linearGradient>
    </defs>
    <g id="1丶图标/24/编辑器/透明度" stroke="none" stroke-width="1" fill="none" fill-rule="evenodd">
        <path d="M5,18 C5.55228475,18 6,18.4477153 6,19 L6,21 C6,21.5522847 5.55228475,22 5,22 L3,22 C2.44771525,22 2,21.5522847 2,21 L2,19 C2,18.4477153 2.44771525,18 3,18 L5,18 Z M13,18 C13.5522847,18 14,18.4477153 14,19 L14,21 C14,21.5522847 13.5522847,22 13,22 L11,22 C10.4477153,22 10,21.5522847 10,21 L10,19 C10,18.4477153 10.4477153,18 11,18 L13,18 Z M21,18 C21.5522847,18 22,18.4477153 22,19 L22,21 C22,21.5522847 21.5522847,22 21,22 L19,22 C18.4477153,22 18,21.5522847 18,21 L18,19 C18,18.4477153 18.4477153,18 19,18 L21,18 Z M9,14 C9.55228475,14 10,14.4477153 10,15 L10,17 C10,17.5522847 9.55228475,18 9,18 L7,18 C6.44771525,18 6,17.5522847 6,17 L6,15 C6,14.4477153 6.44771525,14 7,14 L9,14 Z M17,14 C17.5522847,14 18,14.4477153 18,15 L18,17 C18,17.5522847 17.5522847,18 17,18 L15,18 C14.4477153,18 14,17.5522847 14,17 L14,15 C14,14.4477153 14.4477153,14 15,14 L17,14 Z M5,10 C5.55228475,10 6,10.4477153 6,11 L6,13 C6,13.5522847 5.55228475,14 5,14 L3,14 C2.44771525,14 2,13.5522847 2,13 L2,11 C2,10.4477153 2.44771525,10 3,10 L5,10 Z M13,10 C13.5522847,10 14,10.4477153 14,11 L14,13 C14,13.5522847 13.5522847,14 13,14 L11,14 C10.4477153,14 10,13.5522847 10,13 L10,11 C10,10.4477153 10.4477153,10 11,10 L13,10 Z M21,10 C21.5522847,10 22,10.4477153 22,11 L22,13 C22,13.5522847 21.5522847,14 21,14 L19,14 C18.4477153,14 18,13.5522847 18,13 L18,11 C18,10.4477153 18.4477153,10 19,10 L21,10 Z M9,6 C9.55228475,6 10,6.44771525 10,7 L10,9 C10,9.55228475 9.55228475,10 9,10 L7,10 C6.44771525,10 6,9.55228475 6,9 L6,7 C6,6.44771525 6.44771525,6 7,6 L9,6 Z M17,6 C17.5522847,6 18,6.44771525 18,7 L18,9 C18,9.55228475 17.5522847,10 17,10 L15,10 C14.4477153,10 14,9.55228475 14,9 L14,7 C14,6.44771525 14.4477153,6 15,6 L17,6 Z M5,2 C5.55228475,2 6,2.44771525 6,3 L6,5 C6,5.55228475 5.55228475,6 5,6 L3,6 C2.44771525,6 2,5.55228475 2,5 L2,3 C2,2.44771525 2.44771525,2 3,2 L5,2 Z M13,2 C13.5522847,2 14,2.44771525 14,3 L14,5 C14,5.55228475 13.5522847,6 13,6 L11,6 C10.4477153,6 10,5.55228475 10,5 L10,3 C10,2.44771525 10.4477153,2 11,2 L13,2 Z M21,2 C21.5522847,2 22,2.44771525 22,3 L22,5 C22,5.55228475 21.5522847,6 21,6 L19,6 C18.4477153,6 18,5.55228475 18,5 L18,3 C18,2.44771525 18.4477153,2 19,2 L21,2 Z" id="形状结合" fill="url(#linearGradient-1)"></path>
    </g>
</svg>