<?xml version="1.0" encoding="UTF-8"?>
<svg width="67px" height="14px" viewBox="0 0 67 14" version="1.1" xmlns="http://www.w3.org/2000/svg" xmlns:xlink="http://www.w3.org/1999/xlink">
    <title>映果优品</title>
    <defs>
        <linearGradient x1="100%" y1="50%" x2="0%" y2="50%" id="linearGradient-1">
            <stop stop-color="#FE3132" offset="0%"></stop>
            <stop stop-color="#FD6337" offset="100%"></stop>
        </linearGradient>
        <path d="M26.976,26.162 L25.284,21.59 L27.642,21.59 L27.876,19.952 L27.408,19.952 L28.11,14.912 L25.428,14.912 L25.68,13.22 L22.26,13.22 L22.908,13.904 L22.764,14.912 L20.1,14.912 L19.398,19.952 L18.894,19.952 L18.66,21.59 L21.126,21.59 L18.12,26.144 L20.946,26.144 L23.034,22.688 L24.186,26.162 L26.976,26.162 Z M17.922,25.442 L19.56,13.814 L13.656,13.814 L13.998,14.336 L12.432,25.442 L17.922,25.442 Z M16.932,18.602 L15.456,18.602 L15.888,15.524 L17.364,15.524 L16.932,18.602 Z M22.26,19.952 L21.666,19.952 L22.152,16.46 L22.746,16.46 L22.26,19.952 Z M25.14,19.952 L24.546,19.952 L25.032,16.46 L25.626,16.46 L25.14,19.952 Z M16.212,23.732 L14.736,23.732 L15.204,20.312 L16.68,20.312 L16.212,23.732 Z M38.4625714,26.162 L39.0025714,22.274 L40.8925714,25.856 L44.3125714,25.856 L41.9725714,21.41 L44.6005714,21.41 L44.8345714,19.7 L39.3625714,19.7 L39.4705714,19.016 L44.2585714,19.016 L45.0145714,13.544 L31.3345714,13.544 L31.9285714,14.228 L31.2625714,19.016 L36.0505714,19.016 L35.9425714,19.7 L30.4705714,19.7 L30.2365714,21.41 L32.8465714,21.41 L29.2645714,25.856 L32.6845714,25.856 L35.5825714,22.256 L35.0425714,26.162 L38.4625714,26.162 Z M41.6485714,15.596 L39.9385714,15.596 L40.0465714,14.912 L41.7565714,14.912 L41.6485714,15.596 Z M36.5185714,15.596 L34.8085714,15.596 L34.9165714,14.912 L36.6265714,14.912 L36.5185714,15.596 Z M36.2305714,17.648 L34.5205714,17.648 L34.6105714,16.964 L36.3385714,16.964 L36.2305714,17.648 Z M41.3605714,17.648 L39.6505714,17.648 L39.7585714,16.964 L41.4505714,16.964 L41.3605714,17.648 Z M49.8591429,26.144 L51.3531429,15.416 L51.6591429,13.238 L47.1771429,14.012 L46.8711429,16.19 L47.9691429,16.01 L46.5651429,26.144 L49.8591429,26.144 Z M53.6031429,26.108 L56.1051429,17.954 L61.2351429,17.954 L61.4691429,16.19 L56.6451429,16.19 L57.5631429,13.256 L53.8371429,13.256 L54.3771429,13.922 L53.6031429,16.19 L51.9471429,16.19 L51.7131429,17.954 L53.0091429,17.954 L50.2371429,26.108 L53.6031429,26.108 Z M61.2531429,15.596 L61.0191429,13.58 L58.4451429,13.58 L58.6971429,15.596 L61.2531429,15.596 Z M60.4251429,26.108 L60.7491429,23.75 L59.9751429,24.434 L58.6431429,24.434 L59.4891429,18.476 L56.3751429,18.476 L55.2951429,26.108 L60.4251429,26.108 Z M76.8797143,19.016 L77.6537143,13.544 L66.0257143,13.544 L66.6197143,14.228 L65.9357143,19.016 L76.8797143,19.016 Z M73.7117143,17.306 L69.6077143,17.306 L69.8957143,15.254 L73.9997143,15.254 L73.7117143,17.306 Z M77.6357143,25.856 L78.4997143,19.7 L71.6597143,19.7 L70.7957143,25.856 L77.6357143,25.856 Z M70.1117143,25.856 L70.9757143,19.7 L64.1357143,19.7 L63.2717143,25.856 L70.1117143,25.856 Z M75.1337143,24.146 L73.7657143,24.146 L74.1617143,21.41 L75.5297143,21.41 L75.1337143,24.146 Z M67.6097143,24.146 L66.2417143,24.146 L66.6377143,21.41 L68.0057143,21.41 L67.6097143,24.146 Z" id="path-2"></path>
    </defs>
    <g id="首页改版" stroke="none" stroke-width="1" fill="none" fill-rule="evenodd">
        <g id="确定订单A1" transform="translate(-28.000000, -337.000000)" fill-rule="nonzero">
            <g id="编组-12" transform="translate(16.000000, 318.000000)">
                <g id="映果优品" transform="translate(0.000000, 6.000000)">
                    <use fill="#9C9DA6" xlink:href="#path-2"></use>
                    <use fill="url(#linearGradient-1)" xlink:href="#path-2"></use>
                </g>
            </g>
        </g>
    </g>
</svg>