<?xml version="1.0" encoding="UTF-8"?>
<svg width="315px" height="77px" viewBox="0 0 315 77" version="1.1" xmlns="http://www.w3.org/2000/svg" xmlns:xlink="http://www.w3.org/1999/xlink">
    <title>优惠券+新</title>
    <defs>
        <path d="M307,0 C311.418278,-8.11624501e-16 315,3.581722 315,8 L315,69 C315,73.418278 311.418278,77 307,77 L84.7310127,77 L84.7310127,77 C84.7310127,72.581722 81.3837744,69 77.2547468,69 C73.1257192,69 69.778481,72.581722 69.778481,77 L8,77 C3.581722,77 5.41083001e-16,73.418278 0,69 L0,8 C-5.41083001e-16,3.581722 3.581722,2.58798134e-15 8,0 L69.778481,0 L69.778481,0 C69.778481,4.418278 73.1257192,8 77.2547468,8 C81.3837744,8 84.7310127,4.418278 84.7310127,0 L307,0 Z" id="path-1"></path>
    </defs>
    <g id="首页改版" stroke="none" stroke-width="1" fill="none" fill-rule="evenodd">
        <g id="V2-首页" transform="translate(-30.000000, -2017.000000)">
            <g id="优惠券+新" transform="translate(30.000000, 2017.000000)">
                <mask id="mask-2" fill="white">
                    <use xlink:href="#path-1"></use>
                </mask>
                <use id="蒙版" fill="#FFE391" xlink:href="#path-1"></use>
            </g>
        </g>
    </g>
</svg>